<svg width="20" height="18" viewBox="0 0 20 18" fill="none" xmlns="http://www.w3.org/2000/svg">
<path d="M1.33325 15.3331C1.33325 14.1838 1.7898 13.0816 2.60246 12.269C3.41511 11.4563 4.51731 10.9998 5.66659 10.9998H14.3333C15.4825 10.9998 16.5847 11.4563 17.3974 12.269C18.21 13.0816 18.6666 14.1838 18.6666 15.3331C18.6666 15.9077 18.4383 16.4588 18.032 16.8652C17.6257 17.2715 17.0746 17.4998 16.4999 17.4998H3.49992C2.92528 17.4998 2.37418 17.2715 1.96785 16.8652C1.56153 16.4588 1.33325 15.9077 1.33325 15.3331Z" stroke="black" stroke-linejoin="round"/>
<path d="M10 7.83325C11.7949 7.83325 13.25 6.37818 13.25 4.58325C13.25 2.78833 11.7949 1.33325 10 1.33325C8.20507 1.33325 6.75 2.78833 6.75 4.58325C6.75 6.37818 8.20507 7.83325 10 7.83325Z" stroke="black"/>
</svg>
