<svg width="19" height="23" viewBox="0 0 19 23" fill="none" xmlns="http://www.w3.org/2000/svg">
<path d="M9.99609 0.645508L0.996094 4.64551V10.6455C0.996094 16.1955 4.83609 21.3855 9.99609 22.6455C15.1561 21.3855 18.9961 16.1955 18.9961 10.6455V4.64551L9.99609 0.645508ZM9.99609 2.82551L16.9961 5.94551V10.8655C16.9961 12.5655 16.4961 14.2955 15.6461 15.8155C13.9961 14.5855 11.2561 14.1455 9.99609 14.1455C8.73609 14.1455 5.99609 14.5855 4.34609 15.8155C3.49609 14.2955 2.99609 12.5655 2.99609 10.8655V5.94551L9.99609 2.82551ZM9.99609 5.64551C9.06784 5.64551 8.1776 6.01426 7.52122 6.67063C6.86484 7.32701 6.49609 8.21725 6.49609 9.14551C6.49609 10.0738 6.86484 10.964 7.52122 11.6204C8.1776 12.2768 9.06784 12.6455 9.99609 12.6455C10.9244 12.6455 11.8146 12.2768 12.471 11.6204C13.1273 10.964 13.4961 10.0738 13.4961 9.14551C13.4961 8.21725 13.1273 7.32701 12.471 6.67063C11.8146 6.01426 10.9244 5.64551 9.99609 5.64551ZM9.99609 7.64551C10.3939 7.64551 10.7754 7.80354 11.0568 8.08485C11.3381 8.36615 11.4961 8.74768 11.4961 9.14551C11.4961 9.54333 11.3381 9.92486 11.0568 10.2062C10.7754 10.4875 10.3939 10.6455 9.99609 10.6455C9.59827 10.6455 9.21674 10.4875 8.93543 10.2062C8.65413 9.92486 8.49609 9.54333 8.49609 9.14551C8.49609 8.74768 8.65413 8.36615 8.93543 8.08485C9.21674 7.80354 9.59827 7.64551 9.99609 7.64551ZM9.99609 16.1455C11.5661 16.1455 13.6361 16.7555 14.5261 17.4855C13.2861 19.0255 11.6961 20.1955 9.99609 20.6455C8.29609 20.1955 6.70609 19.0255 5.46609 17.4855C6.36609 16.7555 8.42609 16.1455 9.99609 16.1455Z" fill="white"/>
</svg>
