<svg width="17" height="17" viewBox="0 0 17 17" fill="none" xmlns="http://www.w3.org/2000/svg">
<path d="M8.99609 0.645508C10.057 0.645508 11.0744 1.06694 11.8245 1.81708C12.5747 2.56723 12.9961 3.58464 12.9961 4.64551C12.9961 5.70637 12.5747 6.72379 11.8245 7.47394C11.0744 8.22408 10.057 8.64551 8.99609 8.64551C7.93523 8.64551 6.91781 8.22408 6.16767 7.47394C5.41752 6.72379 4.99609 5.70637 4.99609 4.64551C4.99609 3.58464 5.41752 2.56723 6.16767 1.81708C6.91781 1.06694 7.93523 0.645508 8.99609 0.645508ZM8.99609 2.64551C8.46566 2.64551 7.95695 2.85622 7.58188 3.23129C7.20681 3.60637 6.99609 4.11507 6.99609 4.64551C6.99609 5.17594 7.20681 5.68465 7.58188 6.05972C7.95695 6.43479 8.46566 6.64551 8.99609 6.64551C9.52653 6.64551 10.0352 6.43479 10.4103 6.05972C10.7854 5.68465 10.9961 5.17594 10.9961 4.64551C10.9961 4.11507 10.7854 3.60637 10.4103 3.23129C10.0352 2.85622 9.52653 2.64551 8.99609 2.64551ZM8.99609 9.64551C11.6661 9.64551 16.9961 10.9755 16.9961 13.6455V16.6455H0.996094V13.6455C0.996094 10.9755 6.32609 9.64551 8.99609 9.64551ZM8.99609 11.5455C6.02609 11.5455 2.89609 13.0055 2.89609 13.6455V14.7455H15.0961V13.6455C15.0961 13.0055 11.9661 11.5455 8.99609 11.5455Z" fill="black"/>
</svg>
