<svg width="18" height="20" viewBox="0 0 18 20" fill="none" xmlns="http://www.w3.org/2000/svg">
<path fill-rule="evenodd" clip-rule="evenodd" d="M8.99988 0.375C8.63521 0.375 8.28547 0.519866 8.02761 0.777728C7.76975 1.03559 7.62488 1.38533 7.62488 1.75V1.8875C6.07224 2.20496 4.67687 3.04886 3.67471 4.27651C2.67254 5.50417 2.12508 7.04024 2.12488 8.625V14.125L0.468007 15.951C-0.333618 16.8351 0.293382 18.25 1.48551 18.25H6.61838C6.85975 18.668 7.2069 19.0151 7.62494 19.2565C8.04298 19.4978 8.51718 19.6249 8.99988 19.6249C9.48258 19.6249 9.95678 19.4978 10.3748 19.2565C10.7929 19.0151 11.14 18.668 11.3814 18.25H16.5143C17.7064 18.25 18.3334 16.8337 17.5318 15.951L15.8749 14.125V8.625C15.8747 7.04024 15.3272 5.50417 14.3251 4.27651C13.3229 3.04886 11.9275 2.20496 10.3749 1.8875V1.75C10.3749 1.38533 10.23 1.03559 9.97215 0.777728C9.71429 0.519866 9.36455 0.375 8.99988 0.375ZM4.18738 14.9225L3.65113 15.511L3.03788 16.1875H14.9619L14.3473 15.511L13.8124 14.9211V8.625C13.8124 7.99301 13.6879 7.36721 13.4461 6.78334C13.2042 6.19946 12.8497 5.66893 12.4028 5.22205C11.956 4.77517 11.4254 4.42068 10.8415 4.17883C10.2577 3.93698 9.63187 3.8125 8.99988 3.8125C8.3679 3.8125 7.7421 3.93698 7.15822 4.17883C6.57434 4.42068 6.04381 4.77517 5.59693 5.22205C5.15005 5.66893 4.79556 6.19946 4.55371 6.78334C4.31186 7.36721 4.18738 7.99301 4.18738 8.625V14.9225Z" fill="black"/>
</svg>
