<svg width="17" height="16" viewBox="0 0 17 16" fill="none" xmlns="http://www.w3.org/2000/svg">
<g clip-path="url(#clip0_798_6458)">
<path d="M12.8855 4H5.948C4.96424 4 4.16675 4.79749 4.16675 5.78125V12.7188C4.16675 13.7025 4.96424 14.5 5.948 14.5H12.8855C13.8693 14.5 14.6667 13.7025 14.6667 12.7188V5.78125C14.6667 4.79749 13.8693 4 12.8855 4Z" stroke="#808080" stroke-width="1.5" stroke-linejoin="round"/>
<path d="M12.1511 4L12.1667 3.25C12.1654 2.78628 11.9806 2.34192 11.6527 2.01402C11.3248 1.68612 10.8805 1.50132 10.4167 1.5H3.66675C3.1368 1.50157 2.629 1.71278 2.25426 2.08752C1.87953 2.46225 1.66831 2.97005 1.66675 3.5V10.25C1.66807 10.7137 1.85287 11.1581 2.18077 11.486C2.50867 11.8139 2.95302 11.9987 3.41675 12H4.16675" stroke="#808080" stroke-width="1.5" stroke-linecap="round" stroke-linejoin="round"/>
</g>
<defs>
<clipPath id="clip0_798_6458">
<rect width="16" height="16" fill="white" transform="translate(0.166748)"/>
</clipPath>
</defs>
</svg>
