<svg width="32" height="22" viewBox="0 0 32 22" fill="none" xmlns="http://www.w3.org/2000/svg">
<path d="M9.6053 1.07892C10.3463 0.385678 11.3232 0 12.3379 0H28C30.2091 0 32 1.79086 32 4V18C32 20.2091 30.2091 22 28 22H12.3379C11.3232 22 10.3463 21.6143 9.6053 20.9211L2.12254 13.9211C0.432711 12.3403 0.432711 9.65972 2.12254 8.07891L9.6053 1.07892Z" fill="#0066FF"/>
<path d="M17.1081 6.37721L25.6104 14.8795L23.8794 16.6105L15.3771 8.10821L17.1081 6.37721ZM15.3771 14.8625L23.8624 6.37721L25.5934 8.10821L17.1081 16.5935L15.3771 14.8625Z" fill="white"/>
</svg>
