<svg width="16" height="18" viewBox="0 0 16 18" fill="none" xmlns="http://www.w3.org/2000/svg">
<path d="M10.6998 1.8H2.5998V16.2H13.3998V4.5H10.6998V1.8ZM2.5998 0H11.5998L15.1998 3.6V16.2C15.1998 16.6774 15.0102 17.1352 14.6726 17.4728C14.335 17.8104 13.8772 18 13.3998 18H2.5998C2.12241 18 1.66458 17.8104 1.32701 17.4728C0.989447 17.1352 0.799805 16.6774 0.799805 16.2V1.8C0.799805 1.32261 0.989447 0.864773 1.32701 0.527208C1.66458 0.189642 2.12241 0 2.5998 0ZM4.3998 8.1H11.5998V9.9H4.3998V8.1ZM4.3998 11.7H11.5998V13.5H4.3998V11.7Z" fill="black"/>
</svg>
