<svg width="11" height="19" viewBox="0 0 11 19" fill="none" xmlns="http://www.w3.org/2000/svg">
<path d="M5.79616 8.54551C3.52616 7.95551 2.79616 7.34551 2.79616 6.39551C2.79616 5.30551 3.80616 4.54551 5.49616 4.54551C7.27616 4.54551 7.93616 5.39551 7.99616 6.64551H10.2062C10.1362 4.92551 9.08616 3.34551 6.99616 2.83551V0.645508H3.99616V2.80551C2.05616 3.22551 0.496162 4.48551 0.496162 6.41551C0.496162 8.72551 2.40616 9.87551 5.19616 10.5455C7.69616 11.1455 8.19616 12.0255 8.19616 12.9555C8.19616 13.6455 7.70616 14.7455 5.49616 14.7455C3.43616 14.7455 2.62616 13.8255 2.51616 12.6455H0.316162C0.436162 14.8355 2.07616 16.0655 3.99616 16.4755V18.6455H6.99616V16.4955C8.94616 16.1255 10.4962 14.9955 10.4962 12.9455C10.4962 10.1055 8.06616 9.13551 5.79616 8.54551Z" fill="white"/>
</svg>
