<svg width="50" height="51" viewBox="0 0 50 51" fill="none" xmlns="http://www.w3.org/2000/svg">
    <path 
        d="M40.2706 9.81474L41.1756 10.71C42.4228 11.9452 42.2341 14.1349 40.7507 15.6008L22.0865 34.0637L16.0395 36.2519C15.2802 36.5281 14.5408 36.1699 14.3905 35.4552C14.3397 35.1959 14.3636 34.9278 14.4595 34.6813L16.7145 28.6479L35.3265 10.2351C36.8099 8.76921 39.0234 8.57953 40.2706 9.81474ZM21.272 11.6509C21.4734 11.6509 21.6729 11.6901 21.859 11.7664C22.0451 11.8426 22.2142 11.9544 22.3567 12.0953C22.4991 12.2362 22.6121 12.4035 22.6892 12.5876C22.7663 12.7717 22.806 12.969 22.806 13.1683C22.806 13.3676 22.7663 13.5649 22.6892 13.749C22.6121 13.9331 22.4991 14.1004 22.3567 14.2413C22.2142 14.3822 22.0451 14.494 21.859 14.5703C21.6729 14.6465 21.4734 14.6858 21.272 14.6858H15.136C14.3223 14.6858 13.542 15.0055 12.9666 15.5747C12.3912 16.1438 12.068 16.9158 12.068 17.7207V35.9302C12.068 36.7351 12.3912 37.507 12.9666 38.0762C13.542 38.6453 14.3223 38.9651 15.136 38.9651H33.544C34.3577 38.9651 35.138 38.6453 35.7134 38.0762C36.2887 37.507 36.612 36.7351 36.612 35.9302V29.8603C36.612 29.4579 36.7736 29.0719 37.0613 28.7873C37.3489 28.5028 37.7391 28.3429 38.146 28.3429C38.5528 28.3429 38.943 28.5028 39.2307 28.7873C39.5183 29.0719 39.68 29.4579 39.68 29.8603V35.9302C39.68 37.54 39.0335 39.0839 37.8828 40.2222C36.7321 41.3605 35.1713 42 33.544 42H15.136C13.5086 42 11.9479 41.3605 10.7972 40.2222C9.64647 39.0839 9 37.54 9 35.9302V17.7207C9 16.1109 9.64647 14.567 10.7972 13.4287C11.9479 12.2904 13.5086 11.6509 15.136 11.6509H21.272Z" fill="#0066FF"
    />
</svg>
