<svg width="14" height="9" viewBox="0 0 14 9" fill="none" xmlns="http://www.w3.org/2000/svg">
<path d="M13.3 1.91176H0.7C0.514348 1.91176 0.336301 1.8374 0.205025 1.70502C0.0737498 1.57264 0 1.39309 0 1.20588C0 1.01867 0.0737498 0.839127 0.205025 0.706748C0.336301 0.574369 0.514348 0.5 0.7 0.5H13.3C13.4857 0.5 13.6637 0.574369 13.795 0.706748C13.9262 0.839127 14 1.01867 14 1.20588C14 1.39309 13.9262 1.57264 13.795 1.70502C13.6637 1.8374 13.4857 1.91176 13.3 1.91176ZM10.9667 5.20588H3.03333C2.84768 5.20588 2.66963 5.13151 2.53836 4.99913C2.40708 4.86676 2.33333 4.68721 2.33333 4.5C2.33333 4.31279 2.40708 4.13324 2.53836 4.00087C2.66963 3.86849 2.84768 3.79412 3.03333 3.79412H10.9667C11.1523 3.79412 11.3304 3.86849 11.4616 4.00087C11.5929 4.13324 11.6667 4.31279 11.6667 4.5C11.6667 4.68721 11.5929 4.86676 11.4616 4.99913C11.3304 5.13151 11.1523 5.20588 10.9667 5.20588ZM8.16667 8.5H5.83333C5.64768 8.5 5.46963 8.42563 5.33836 8.29325C5.20708 8.16087 5.13333 7.98133 5.13333 7.79412C5.13333 7.60691 5.20708 7.42736 5.33836 7.29498C5.46963 7.16261 5.64768 7.08824 5.83333 7.08824H8.16667C8.35232 7.08824 8.53037 7.16261 8.66164 7.29498C8.79292 7.42736 8.86667 7.60691 8.86667 7.79412C8.86667 7.98133 8.79292 8.16087 8.66164 8.29325C8.53037 8.42563 8.35232 8.5 8.16667 8.5Z" fill="#808080"/>
</svg>
