<svg width="24" height="24" viewBox="0 0 24 24" fill="none" xmlns="http://www.w3.org/2000/svg">
<path d="M12 18.207C12.946 18.207 13.81 18.104 14.598 17.926L12.841 16.169C12.568 16.19 12.291 16.207 12 16.207C6.64898 16.207 4.57598 12.361 4.07398 11.207C4.45093 10.3658 4.96003 9.59034 5.58198 8.91L4.18398 7.512C2.64598 9.179 2.06298 10.858 2.05198 10.891C1.983 11.0964 1.983 11.3186 2.05198 11.524C2.07298 11.59 4.36698 18.207 12 18.207ZM12 4.207C10.163 4.207 8.65398 4.603 7.39598 5.188L3.70698 1.5L2.29298 2.914L20.293 20.914L21.707 19.5L18.388 16.181C21.002 14.23 21.935 11.566 21.949 11.524C22.018 11.3186 22.018 11.0964 21.949 10.891C21.927 10.824 19.633 4.207 12 4.207ZM16.972 14.765L14.692 12.485C14.882 12.095 15 11.666 15 11.207C15 9.566 13.641 8.207 12 8.207C11.541 8.207 11.112 8.325 10.723 8.516L8.91498 6.708C9.9075 6.36741 10.9507 6.198 12 6.207C17.351 6.207 19.424 10.053 19.926 11.207C19.624 11.899 18.76 13.549 16.972 14.765Z" fill="#808080"/>
</svg>
