<svg width="24" height="24" viewBox="0 0 24 24" fill="none" xmlns="http://www.w3.org/2000/svg">
<g id="Icon/settings">
<path id="Combined Shape" d="M9.54404 4.36754L8.83253 4.13037V4.13037L9.54404 4.36754ZM9.12852 5.61412L9.43648 6.29798L9.73611 6.16304L9.84003 5.85129L9.12852 5.61412ZM7.90686 6.32071L7.7565 7.05548L8.07899 7.12147L8.34587 6.9288L7.90686 6.32071ZM6.61791 6.05695L6.46755 6.79172L6.61791 6.05695ZM4.4849 7.01634L5.13442 7.39134L4.4849 7.01634ZM3.92642 7.98366L4.57594 8.35866L3.92642 7.98366ZM4.16207 10.3106L4.72322 9.813H4.72322L4.16207 10.3106ZM5.03495 11.295L5.78123 11.3696L5.8139 11.043L5.59611 10.7974L5.03495 11.295ZM5.03495 12.705L5.59611 13.2026L5.8139 12.957L5.78123 12.6304L5.03495 12.705ZM4.16207 13.6894L3.60091 13.1918H3.60091L4.16207 13.6894ZM3.92642 16.0163L4.57594 15.6413L3.92642 16.0163ZM4.4849 16.9837L5.13442 16.6087L4.4849 16.9837ZM6.61791 17.9431L6.46755 17.2083H6.46755L6.61791 17.9431ZM7.90686 17.6793L8.34587 17.0712L8.07899 16.8785L7.7565 16.9445L7.90686 17.6793ZM9.12852 18.3859L9.84003 18.1487L9.73611 17.837L9.43648 17.702L9.12852 18.3859ZM9.54404 19.6325L8.83253 19.8696L9.54404 19.6325ZM14.4557 19.6325L13.7442 19.3953V19.3953L14.4557 19.6325ZM14.8713 18.3859L14.5633 17.702L14.2637 17.837L14.1598 18.1487L14.8713 18.3859ZM16.0929 17.6793L16.2433 16.9445L15.9208 16.8785L15.6539 17.0712L16.0929 17.6793ZM17.3819 17.9431L17.2315 18.6778L17.3819 17.9431ZM19.5149 16.9837L18.8654 16.6087L19.5149 16.9837ZM20.0734 16.0163L20.7229 16.3913V16.3913L20.0734 16.0163ZM19.8377 13.6894L19.2766 14.187H19.2766L19.8377 13.6894ZM18.9648 12.705L18.2185 12.6304L18.1859 12.957L18.4037 13.2026L18.9648 12.705ZM18.9648 11.295L18.4037 10.7974L18.1859 11.043L18.2185 11.3696L18.9648 11.295ZM19.8377 10.3106L20.3989 10.8082L19.8377 10.3106ZM20.0734 7.98366L19.4238 8.35866V8.35866L20.0734 7.98366ZM19.5149 7.01634L20.1644 6.64134V6.64134L19.5149 7.01634ZM17.3819 6.05695L17.2315 5.32217L17.3819 6.05695ZM16.0929 6.32071L15.6539 6.92879L15.9208 7.12147L16.2433 7.05548L16.0929 6.32071ZM14.8713 5.61412L14.1598 5.85129L14.2637 6.16304L14.5633 6.29798L14.8713 5.61412ZM14.4557 4.36754L13.7442 4.60471V4.60472L14.4557 4.36754ZM10.2556 4.60472C10.4257 4.09429 10.9034 3.75 11.4414 3.75V2.25C10.2577 2.25 9.20684 3.00743 8.83253 4.13037L10.2556 4.60472ZM9.84003 5.85129L10.2556 4.60472L8.83253 4.13037L8.417 5.37695L9.84003 5.85129ZM8.34587 6.9288C8.68558 6.68354 9.05073 6.4717 9.43648 6.29798L8.82055 4.93027C8.34164 5.14594 7.88878 5.40873 7.46785 5.71262L8.34587 6.9288ZM6.46755 6.79172L7.7565 7.05548L8.05722 5.58594L6.76827 5.32217L6.46755 6.79172ZM5.13442 7.39134C5.40344 6.92539 5.94044 6.68385 6.46755 6.79172L6.76827 5.32217C5.60862 5.08487 4.42723 5.61624 3.83538 6.64134L5.13442 7.39134ZM4.57594 8.35866L5.13442 7.39134L3.83538 6.64134L3.2769 7.60866L4.57594 8.35866ZM4.72322 9.813C4.36625 9.41044 4.30692 8.82461 4.57594 8.35866L3.2769 7.60866C2.68506 8.63376 2.81558 9.92257 3.60091 10.8082L4.72322 9.813ZM5.59611 10.7974L4.72322 9.813L3.60091 10.8082L4.4738 11.7926L5.59611 10.7974ZM5.74989 12C5.74989 11.787 5.76052 11.5767 5.78123 11.3696L4.28868 11.2203C4.26301 11.477 4.24989 11.7371 4.24989 12H5.74989ZM5.78123 12.6304C5.76052 12.4233 5.74989 12.213 5.74989 12H4.24989C4.24989 12.2629 4.26301 12.523 4.28868 12.7797L5.78123 12.6304ZM4.72322 14.187L5.59611 13.2026L4.4738 12.2074L3.60091 13.1918L4.72322 14.187ZM4.57594 15.6413C4.30692 15.1754 4.36625 14.5896 4.72322 14.187L3.60091 13.1918C2.81557 14.0774 2.68506 15.3662 3.2769 16.3913L4.57594 15.6413ZM5.13442 16.6087L4.57594 15.6413L3.2769 16.3913L3.83538 17.3587L5.13442 16.6087ZM6.46755 17.2083C5.94044 17.3161 5.40344 17.0746 5.13442 16.6087L3.83538 17.3587C4.42722 18.3838 5.60862 18.9151 6.76827 18.6778L6.46755 17.2083ZM7.7565 16.9445L6.46755 17.2083L6.76827 18.6778L8.05722 18.4141L7.7565 16.9445ZM9.43648 17.702C9.05073 17.5283 8.68558 17.3165 8.34587 17.0712L7.46785 18.2874C7.88878 18.5913 8.34164 18.8541 8.82055 19.0697L9.43648 17.702ZM10.2556 19.3953L9.84003 18.1487L8.417 18.623L8.83253 19.8696L10.2556 19.3953ZM11.4414 20.25C10.9034 20.25 10.4257 19.9057 10.2556 19.3953L8.83253 19.8696C9.20684 20.9926 10.2577 21.75 11.4414 21.75V20.25ZM12.5584 20.25H11.4414V21.75H12.5584V20.25ZM13.7442 19.3953C13.5741 19.9057 13.0964 20.25 12.5584 20.25V21.75C13.7421 21.75 14.7929 20.9926 15.1672 19.8696L13.7442 19.3953ZM14.1598 18.1487L13.7442 19.3953L15.1672 19.8696L15.5828 18.623L14.1598 18.1487ZM15.6539 17.0712C15.3142 17.3165 14.9491 17.5283 14.5633 17.702L15.1792 19.0697C15.6581 18.8541 16.111 18.5913 16.5319 18.2874L15.6539 17.0712ZM17.5322 17.2083L16.2433 16.9445L15.9426 18.4141L17.2315 18.6778L17.5322 17.2083ZM18.8654 16.6087C18.5963 17.0746 18.0593 17.3161 17.5322 17.2083L17.2315 18.6778C18.3912 18.9151 19.5726 18.3838 20.1644 17.3587L18.8654 16.6087ZM19.4238 15.6413L18.8654 16.6087L20.1644 17.3587L20.7229 16.3913L19.4238 15.6413ZM19.2766 14.187C19.6335 14.5896 19.6929 15.1754 19.4238 15.6413L20.7229 16.3913C21.3147 15.3662 21.1842 14.0774 20.3989 13.1918L19.2766 14.187ZM18.4037 13.2026L19.2766 14.187L20.3989 13.1918L19.526 12.2074L18.4037 13.2026ZM18.2499 12C18.2499 12.213 18.2393 12.4233 18.2185 12.6304L19.7111 12.7797C19.7368 12.523 19.7499 12.2629 19.7499 12H18.2499ZM18.2185 11.3696C18.2393 11.5767 18.2499 11.787 18.2499 12H19.7499C19.7499 11.7371 19.7368 11.477 19.7111 11.2203L18.2185 11.3696ZM19.2766 9.813L18.4037 10.7974L19.526 11.7926L20.3989 10.8082L19.2766 9.813ZM19.4238 8.35866C19.6929 8.82461 19.6335 9.41043 19.2766 9.813L20.3989 10.8082C21.1842 9.92257 21.3147 8.63376 20.7229 7.60866L19.4238 8.35866ZM18.8654 7.39134L19.4238 8.35866L20.7229 7.60866L20.1644 6.64134L18.8654 7.39134ZM17.5322 6.79172C18.0593 6.68385 18.5963 6.92539 18.8654 7.39134L20.1644 6.64134C19.5726 5.61624 18.3912 5.08487 17.2315 5.32217L17.5322 6.79172ZM16.2433 7.05548L17.5322 6.79172L17.2315 5.32217L15.9426 5.58594L16.2433 7.05548ZM14.5633 6.29798C14.9491 6.4717 15.3142 6.68354 15.6539 6.92879L16.5319 5.71262C16.111 5.40873 15.6581 5.14594 15.1792 4.93027L14.5633 6.29798ZM13.7442 4.60472L14.1598 5.85129L15.5828 5.37695L15.1672 4.13037L13.7442 4.60472ZM12.5584 3.75C13.0964 3.75 13.5741 4.09429 13.7442 4.60471L15.1672 4.13037C14.7929 3.00743 13.7421 2.25 12.5584 2.25V3.75ZM11.4414 3.75H12.5584V2.25H11.4414V3.75Z" fill="#808080"/>
<path id="Oval" fill-rule="evenodd" clip-rule="evenodd" d="M12 13C12.5523 13 13 12.5523 13 12C13 11.4477 12.5523 11 12 11C11.4477 11 11 11.4477 11 12C11 12.5523 11.4477 13 12 13Z" stroke="#808080" stroke-width="1.5"/>
</g>
</svg>
