<svg width="60" height="60" viewBox="0 0 60 60" fill="none" xmlns="http://www.w3.org/2000/svg">
<g id="Group 332">
<circle id="Ellipse 88" cx="30" cy="30" r="30" fill="#0066FF"/>
<path id="Vector" d="M34.6757 36.2342H25.3251C24.9117 36.2342 24.5154 36.07 24.2231 35.7777C23.9308 35.4854 23.7666 35.089 23.7666 34.6757V32.3381H25.3251V34.6757H34.6757V32.3381H36.2342V34.6757C36.2342 35.089 36.07 35.4854 35.7777 35.7777C35.4854 36.07 35.089 36.2342 34.6757 36.2342ZM19.0913 29.2212H40.9095V30.7796H19.0913V29.2212ZM36.2342 27.6627H34.6757V25.3251H25.3251V27.6627H23.7666V25.3251C23.7666 24.9117 23.9308 24.5154 24.2231 24.2231C24.5154 23.9308 24.9117 23.7666 25.3251 23.7666H34.6757C35.089 23.7666 35.4854 23.9308 35.7777 24.2231C36.07 24.5154 36.2342 24.9117 36.2342 25.3251V27.6627ZM40.9095 25.3251H39.351V20.6497H34.6757V19.0913H40.9095V25.3251ZM20.6497 25.3251H19.0913V19.0913H25.3251V20.6497H20.6497V25.3251ZM25.3251 40.9095H19.0913V34.6757H20.6497V39.351H25.3251V40.9095ZM40.9095 40.9095H34.6757V39.351H39.351V34.6757H40.9095V40.9095Z" fill="white"/>
</g>
</svg>
