<svg width="24" height="24" viewBox="0 0 24 24" fill="none" xmlns="http://www.w3.org/2000/svg">
<g clip-path="url(#clip0_1603_7201)">
<path fill-rule="evenodd" clip-rule="evenodd" d="M6.00003 4.5C4.78925 4.49983 3.61225 4.8992 2.65159 5.63617C1.69093 6.37313 1.00029 7.4065 0.686812 8.57599C0.373329 9.74549 0.454515 10.9857 0.917779 12.1044C1.38104 13.223 2.20049 14.1576 3.24903 14.763C3.59341 14.9622 4.00281 15.0164 4.38717 14.9137C4.57748 14.8629 4.75592 14.775 4.91229 14.6552C5.06866 14.5354 5.1999 14.386 5.29853 14.2155C5.39715 14.045 5.46122 13.8567 5.48708 13.6614C5.51294 13.4661 5.50008 13.2677 5.44924 13.0774C5.3984 12.887 5.31058 12.7086 5.19078 12.5522C5.07098 12.3959 4.92155 12.2646 4.75103 12.166C4.27403 11.8911 3.90112 11.4664 3.69018 10.9579C3.47924 10.4493 3.44207 9.88538 3.58443 9.35356C3.72679 8.82173 4.04072 8.35177 4.4775 8.01662C4.91428 7.68146 5.44948 7.49986 6.00003 7.5H12C12.6089 7.49939 13.197 7.72098 13.6541 8.12318C14.1111 8.52538 14.4057 9.08055 14.4825 9.68452C14.5594 10.2885 14.4132 10.8997 14.0714 11.4036C13.7295 11.9074 13.2156 12.2692 12.626 12.421C12.2407 12.5202 11.9105 12.7684 11.7081 13.111C11.5058 13.4537 11.4478 13.8626 11.547 14.248C11.6462 14.6334 11.8944 14.9635 12.2371 15.1659C12.5797 15.3682 12.9887 15.4262 13.374 15.327C14.6685 14.9905 15.796 14.194 16.5458 13.0864C17.2956 11.9789 17.6163 10.6362 17.448 9.30931C17.2796 7.98247 16.6336 6.7624 15.631 5.87725C14.6283 4.99211 13.3375 4.5025 12 4.5H6.00003ZM11.374 11.579C11.7594 11.4798 12.0896 11.2316 12.2919 10.889C12.4943 10.5463 12.5522 10.1374 12.453 9.752C12.3538 9.36664 12.1056 9.03647 11.763 8.83412C11.4204 8.63176 11.0114 8.57381 10.626 8.673C9.33157 9.00951 8.20401 9.80601 7.45421 10.9136C6.70441 12.0211 6.38372 13.3638 6.5521 14.6907C6.72048 16.0175 7.36641 17.2376 8.36909 18.1227C9.37178 19.0079 10.6625 19.4975 12 19.5H18C19.2108 19.5002 20.3878 19.1008 21.3485 18.3638C22.3091 17.6269 22.9998 16.5935 23.3132 15.424C23.6267 14.2545 23.5455 13.0143 23.0823 11.8956C22.619 10.777 21.7996 9.84244 20.751 9.237C20.4066 9.03782 19.9972 8.98361 19.6129 9.08628C19.2285 9.18896 18.9007 9.44012 18.7015 9.7845C18.5023 10.1289 18.4481 10.5383 18.5508 10.9226C18.6535 11.307 18.9046 11.6348 19.249 11.834C19.726 12.1089 20.0989 12.5336 20.3099 13.0421C20.5208 13.5507 20.558 14.1146 20.4156 14.6464C20.2733 15.1783 19.9593 15.6482 19.5226 15.9834C19.0858 16.3185 18.5506 16.5001 18 16.5H12C11.3912 16.5006 10.8031 16.279 10.346 15.8768C9.88893 15.4746 9.59434 14.9194 9.51751 14.3155C9.44068 13.7115 9.58689 13.1003 9.9287 12.5964C10.2705 12.0926 10.7844 11.7308 11.374 11.579Z" fill="#7F7F7F"/>
</g>
<defs>
<clipPath id="clip0_1603_7201">
<rect width="24" height="24" fill="white"/>
</clipPath>
</defs>
</svg>
