<svg width="100" height="92" viewBox="0 0 100 100" fill="none" xmlns="http://www.w3.org/2000/svg">
<path d="M95.8184 50C98.404 50 100.523 47.8994 100.281 45.3251C99.6097 38.1768 97.4047 31.2376 93.7949 24.989C89.4024 17.3855 83.085 11.0728 75.4781 6.68607C67.8712 2.29936 59.2431 -0.00665924 50.462 1.44401e-05C41.6809 0.00668812 33.0564 2.32582 25.4561 6.72409C17.8559 11.1224 11.548 17.4446 7.1671 25.0549C2.78617 32.6651 0.48671 41.2949 0.500058 50.076C0.513405 58.8571 2.83909 67.4799 7.24313 75.0768C10.8623 81.3198 15.7803 86.6891 21.6436 90.8327C23.7552 92.3249 26.6321 91.5345 27.9204 89.2927C29.2087 87.0509 28.4158 84.21 26.337 82.6726C21.8842 79.3795 18.1377 75.2005 15.3436 70.3808C11.7643 64.2065 9.87413 57.1985 9.86329 50.0618C9.85244 42.925 11.7213 35.9113 15.2818 29.7262C18.8424 23.5411 23.969 18.4028 30.146 14.8281C36.3229 11.2535 43.3324 9.36868 50.4691 9.36325C57.6058 9.35783 64.6181 11.232 70.8005 14.7972C76.9829 18.3625 82.1174 23.493 85.6873 29.6727C88.4741 34.4967 90.2308 39.8272 90.8674 45.3287C91.1646 47.8971 93.2328 50 95.8184 50Z" fill="#D9D9D9"/>
</svg>
