<svg width="91" height="100" viewBox="0 0 81 105" fill="none" xmlns="http://www.w3.org/2000/svg">
<path d="M22.253 53.4696C21.1061 53.4696 20.1156 53.0838 19.2815 52.3123C18.4474 51.5409 18.0304 50.6017 18.0304 49.4947C18.0304 48.3878 18.4474 47.4486 19.2815 46.6771C20.1156 45.8721 21.1061 45.4696 22.253 45.4696C23.3998 45.4696 24.3903 45.8721 25.2244 46.6771C26.0585 47.4486 26.4756 48.3878 26.4756 49.4947C26.4756 50.6017 26.0585 51.5409 25.2244 52.3123C24.3903 53.0838 23.3998 53.4696 22.253 53.4696Z" fill="#D4D4D4"/>
<path d="M40.0304 53.4696C38.8835 53.4696 37.893 53.0838 37.0589 52.3123C36.2248 51.5409 35.8078 50.6017 35.8078 49.4947C35.8078 48.3878 36.2248 47.4486 37.0589 46.6771C37.893 45.8721 38.8835 45.4696 40.0304 45.4696C41.1772 45.4696 42.1677 45.8721 43.0018 46.6771C43.8359 47.4486 44.253 48.3878 44.253 49.4947C44.253 50.6017 43.8359 51.5409 43.0018 52.3123C42.1677 53.0838 41.1772 53.4696 40.0304 53.4696Z" fill="#D4D4D4"/>
<path d="M57.8078 53.4696C56.6609 53.4696 55.6704 53.0838 54.8363 52.3123C54.0022 51.5409 53.5852 50.6017 53.5852 49.4947C53.5852 48.3878 54.0022 47.4486 54.8363 46.6771C55.6704 45.8721 56.6609 45.4696 57.8078 45.4696C58.9547 45.4696 59.9451 45.8721 60.7792 46.6771C61.6133 47.4486 62.0304 48.3878 62.0304 49.4947C62.0304 50.6017 61.6133 51.5409 60.7792 52.3123C59.9451 53.0838 58.9547 53.4696 57.8078 53.4696Z" fill="#D4D4D4"/>
</svg>
