<svg width="91" height="100" viewBox="0 0 91 100" fill="none" xmlns="http://www.w3.org/2000/svg">
<path d="M40.5304 5.90317C40.5304 2.45139 43.3394 -0.387078 46.7642 0.0432845C53.2911 0.863439 59.6131 2.96635 65.3585 6.25313C72.9185 10.578 79.2176 16.8026 83.632 24.3106C88.0465 31.8186 90.4232 40.3495 90.5268 49.0585C90.6304 57.7675 88.4573 66.3525 84.2226 73.9634C79.988 81.5742 73.8387 87.9469 66.3837 92.4504C58.9288 96.9539 50.4268 99.4319 41.7196 99.639C33.0124 99.8462 24.4022 97.7753 16.7415 93.6315C10.9196 90.4823 5.79961 86.2188 1.66168 81.1051C-0.509629 78.4218 0.421377 74.5385 3.35447 72.7186C6.28757 70.8988 10.1055 71.8454 12.3867 74.436C15.2994 77.7436 18.7835 80.5245 22.6887 82.6369C28.4342 85.7448 34.8919 87.2979 41.4223 87.1426C47.9527 86.9872 54.3292 85.1287 59.9204 81.7511C65.5116 78.3735 70.1236 73.594 73.2996 67.8858C76.4756 62.1777 78.1054 55.7389 78.0277 49.2072C77.95 42.6754 76.1675 36.2773 72.8566 30.6463C69.5458 25.0153 64.8214 20.3468 59.1515 17.1031C55.2976 14.8985 51.0978 13.404 46.7516 12.6728C43.3476 12.1001 40.5304 9.35495 40.5304 5.90317Z" fill="#D4D4D4"/>
</svg>
