<svg xmlns="http://www.w3.org/2000/svg" width="216" height="117" viewBox="0 0 216 117" fill="none">
  <path d="M48.3142 8.93227C49.2214 3.99911 54.023 0 59.0388 0H167.013C172.029 0 175.36 3.99911 174.453 8.93226L172.645 18.7651H46.506L48.3142 8.93227Z" fill="white"/>
  <path d="M45.6275 23.5423H92.5519C94.5796 23.5423 96.3842 24.3205 97.5818 25.7112L124.426 56.8858H47.2804C42.9811 56.8858 40.1261 53.458 40.9037 49.2296L45.6275 23.5423Z" fill="white"/>
  <path d="M167.913 49.2295C167.135 53.458 163.02 56.8858 158.72 56.8858H136.758C134.787 56.8858 133.024 56.1503 131.826 54.8278L116.803 38.2449L169.933 38.2449L167.913 49.2295Z" fill="white"/>
  <path d="M134.165 113.623H127.701V82.7637H146.232C151.49 82.7637 155.8 87.0306 155.8 92.3319C155.8 94.9179 154.765 97.3315 152.955 99.1417C151.145 100.952 148.559 101.9 146.103 101.857L134.208 101.943V113.666L134.165 113.623ZM134.165 89.1856V95.4351L146.103 95.3489C147.137 95.392 147.784 95.0472 148.387 94.4438C148.99 93.8404 149.292 93.0646 149.292 92.2457C149.292 90.5648 147.913 89.1425 146.189 89.1425H134.122L134.165 89.1856Z" fill="white"/>
  <path d="M119.679 82.7637H113.215V113.666H119.679V82.7637Z" fill="white"/>
  <path d="M61.4564 113.322H49.7341C45.1227 113.322 41.4164 109.615 41.4164 105.09V82.7637H47.8809V105.09C47.8809 106.124 48.6997 106.943 49.7341 106.943H61.4564C62.4045 106.943 63.1802 106.167 63.1802 105.262V82.7637H69.6447V105.219C69.6447 109.701 65.9815 113.322 61.4564 113.322Z" fill="white"/>
  <path d="M36.4598 105.046V90.9958C36.4598 86.4703 32.7104 82.7637 28.0991 82.7637H8.31767C3.74942 82.7637 0 86.4703 0 90.9958V105.046C0 109.615 3.74942 113.279 8.31767 113.279H17.2387L13.1876 106.9H20.6864L26.8062 116.468H34.3912L31.8054 112.417C34.5636 111.08 36.5029 108.279 36.5029 105.046H36.4598ZM24.1342 100.435H13.1445V106.9H8.31767C7.28335 106.9 6.46451 106.081 6.46451 105.046V90.9958C6.46451 89.9614 7.28335 89.1425 8.31767 89.1425H28.0991C29.1334 89.1425 29.9522 89.9614 29.9522 90.9958V105.046C29.9522 106.038 29.1765 106.814 28.1853 106.857L24.0911 100.435H24.1342Z" fill="white"/>
  <path d="M174.78 82.7637H167.065L152.154 113.322H159.351L162.54 106.814H179.736L182.925 113.322H190.122L175.167 82.7637H174.78ZM165.686 100.349L171.116 89.2287L176.547 100.349H165.686Z" fill="white"/>
  <path d="M208.222 82.5483L200.723 97.8489L193.268 82.5483H186.07L197.146 105.219L193.181 113.322H200.379L215.419 82.5483H208.222Z" fill="white"/>
  <path d="M78.522 113.322L81.7542 106.684V106.814H98.8636L102.053 113.322H109.25L94.3816 82.7637H86.2794L71.3679 113.322H78.5651H78.522ZM90.2874 89.2287L95.7176 100.349H84.8572L90.2874 89.2287Z" fill="white"/>
</svg>