<svg width="31" height="31" viewBox="0 0 31 31" fill="none" xmlns="http://www.w3.org/2000/svg">
<path d="M7.02537 6.84519C6.95111 6.88738 6.88937 6.94854 6.84648 7.02241C6.80359 7.09628 6.78108 7.18021 6.78125 7.26562V25.6719C6.78125 25.9393 6.99825 26.1562 7.26562 26.1562H23.7344C23.8628 26.1562 23.986 26.1052 24.0769 26.0144C24.1677 25.9235 24.2188 25.8003 24.2188 25.6719V7.26562C24.2189 7.18021 24.1964 7.09628 24.1535 7.02241C24.1106 6.94854 24.0489 6.88738 23.9746 6.84519C23.6411 6.65198 23.3981 6.3342 23.2989 5.96177C23.1997 5.58933 23.2525 5.19274 23.4457 4.85925C23.6389 4.52576 23.9567 4.28268 24.3291 4.18348C24.7015 4.08429 25.0981 4.1371 25.4316 4.33031C26.4798 4.93675 27.125 6.05469 27.125 7.26562V25.6719C27.125 26.5711 26.7678 27.4335 26.1319 28.0694C25.496 28.7053 24.6336 29.0625 23.7344 29.0625H7.26562C6.36638 29.0625 5.50396 28.7053 4.86809 28.0694C4.23223 27.4335 3.875 26.5711 3.875 25.6719V7.26562C3.875 6.05469 4.52019 4.93675 5.56838 4.33031C5.90187 4.1371 6.29845 4.08429 6.67089 4.18348C7.04333 4.28268 7.3611 4.52576 7.55431 4.85925C7.74752 5.19274 7.80034 5.58933 7.70114 5.96177C7.60195 6.3342 7.35887 6.65198 7.02537 6.84519ZM11.1406 1.9375H19.8594C20.2448 1.9375 20.6144 2.0906 20.8869 2.36311C21.1594 2.63562 21.3125 3.00523 21.3125 3.39062V9.20312C21.3125 9.58852 21.1594 9.95813 20.8869 10.2306C20.6144 10.5032 20.2448 10.6562 19.8594 10.6562H11.1406C10.7552 10.6562 10.3856 10.5032 10.1131 10.2306C9.8406 9.95813 9.6875 9.58852 9.6875 9.20312V3.39062C9.6875 3.00523 9.8406 2.63562 10.1131 2.36311C10.3856 2.0906 10.7552 1.9375 11.1406 1.9375ZM12.5938 7.75H18.4062V4.84375H12.5938V7.75Z" fill="white"/>
<path d="M11 14H20" stroke="white" stroke-width="2" stroke-linecap="round"/>
<path d="M11 18H20" stroke="white" stroke-width="2" stroke-linecap="round"/>
<path d="M11 22H20" stroke="white" stroke-width="2" stroke-linecap="round"/>
</svg>
