<svg width="20" height="20" viewBox="0 0 20 20" fill="none" xmlns="http://www.w3.org/2000/svg">
<path d="M4.5325 4.41625C4.48458 4.44347 4.44476 4.48293 4.41708 4.53058C4.38941 4.57824 4.37489 4.63239 4.375 4.6875V16.5625C4.375 16.735 4.515 16.875 4.6875 16.875H15.3125C15.3954 16.875 15.4749 16.8421 15.5335 16.7835C15.5921 16.7249 15.625 16.6454 15.625 16.5625V4.6875C15.6251 4.63239 15.6106 4.57824 15.5829 4.53058C15.5552 4.48293 15.5154 4.44347 15.4675 4.41625C15.2523 4.2916 15.0955 4.08658 15.0315 3.8463C14.9675 3.60602 15.0016 3.35016 15.1262 3.135C15.2509 2.91984 15.4559 2.76302 15.6962 2.69902C15.9365 2.63502 16.1923 2.6691 16.4075 2.79375C17.0837 3.185 17.5 3.90625 17.5 4.6875V16.5625C17.5 17.1427 17.2695 17.6991 16.8593 18.1093C16.4491 18.5195 15.8927 18.75 15.3125 18.75H4.6875C4.10734 18.75 3.55094 18.5195 3.1407 18.1093C2.73047 17.6991 2.5 17.1427 2.5 16.5625V4.6875C2.5 3.90625 2.91625 3.185 3.5925 2.79375C3.80766 2.6691 4.06352 2.63502 4.3038 2.69902C4.54408 2.76302 4.7491 2.91984 4.87375 3.135C4.9984 3.35016 5.03248 3.60602 4.96848 3.8463C4.90448 4.08658 4.74766 4.2916 4.5325 4.41625ZM7.1875 1.25H12.8125C13.0611 1.25 13.2996 1.34877 13.4754 1.52459C13.6512 1.7004 13.75 1.93886 13.75 2.1875V5.9375C13.75 6.18614 13.6512 6.4246 13.4754 6.60041C13.2996 6.77623 13.0611 6.875 12.8125 6.875H7.1875C6.93886 6.875 6.7004 6.77623 6.52459 6.60041C6.34877 6.4246 6.25 6.18614 6.25 5.9375V2.1875C6.25 1.93886 6.34877 1.7004 6.52459 1.52459C6.7004 1.34877 6.93886 1.25 7.1875 1.25ZM8.125 5H11.875V3.125H8.125V5Z" fill="#7F7F7F"/>
<path d="M7.0968 9.03223H12.9033" stroke="#7F7F7F" stroke-width="1.33333" stroke-linecap="round"/>
<path d="M7.0968 11.6128H12.9033" stroke="#7F7F7F" stroke-width="1.33333" stroke-linecap="round"/>
<path d="M7.0968 14.1934H12.9033" stroke="#7F7F7F" stroke-width="1.33333" stroke-linecap="round"/>
</svg>
