<svg xmlns="http://www.w3.org/2000/svg" width="32" height="32" viewBox="0 0 32 32" fill="none">
  <path d="M15.9999 5.3335C17.4144 5.3335 18.771 5.8954 19.7712 6.89559C20.7713 7.89579 21.3333 9.25234 21.3333 10.6668C21.3333 12.0813 20.7713 13.4379 19.7712 14.4381C18.771 15.4383 17.4144 16.0002 15.9999 16.0002C14.5854 16.0002 13.2289 15.4383 12.2287 14.4381C11.2285 13.4379 10.6666 12.0813 10.6666 10.6668C10.6666 9.25234 11.2285 7.89579 12.2287 6.89559C13.2289 5.8954 14.5854 5.3335 15.9999 5.3335ZM15.9999 8.00016C15.2927 8.00016 14.6144 8.28111 14.1143 8.78121C13.6142 9.28131 13.3333 9.95959 13.3333 10.6668C13.3333 11.3741 13.6142 12.0524 14.1143 12.5524C14.6144 13.0525 15.2927 13.3335 15.9999 13.3335C16.7072 13.3335 17.3854 13.0525 17.8855 12.5524C18.3856 12.0524 18.6666 11.3741 18.6666 10.6668C18.6666 9.95959 18.3856 9.28131 17.8855 8.78121C17.3854 8.28111 16.7072 8.00016 15.9999 8.00016ZM15.9999 17.3335C19.5599 17.3335 26.6666 19.1068 26.6666 22.6668V26.6668H5.33325V22.6668C5.33325 19.1068 12.4399 17.3335 15.9999 17.3335ZM15.9999 19.8668C12.0399 19.8668 7.86659 21.8135 7.86659 22.6668V24.1335H24.1333V22.6668C24.1333 21.8135 19.9599 19.8668 15.9999 19.8668Z" fill="#0066FF"/>
</svg>