<svg width="50" height="51" viewBox="0 0 50 51" fill="none" xmlns="http://www.w3.org/2000/svg">
    <g clip-path="url(#clip0_798_6354)">
        <path d="M34.375 3.625C35.2038 3.625 35.9987 3.95424 36.5847 4.54029C37.1708 5.12634 37.5 5.9212 37.5 6.75V44.25C37.5 45.0788 37.1708 45.8737 36.5847 46.4597C35.9987 47.0458 35.2038 47.375 34.375 47.375H15.625C14.7962 47.375 14.0013 47.0458 13.4153 46.4597C12.8292 45.8737 12.5 45.0788 12.5 44.25V6.75C12.5 5.9212 12.8292 5.12634 13.4153 4.54029C14.0013 3.95424 14.7962 3.625 15.625 3.625H34.375ZM15.625 0.5C13.9674 0.5 12.3777 1.15848 11.2056 2.33058C10.0335 3.50269 9.375 5.0924 9.375 6.75V44.25C9.375 45.9076 10.0335 47.4973 11.2056 48.6694C12.3777 49.8415 13.9674 50.5 15.625 50.5H34.375C36.0326 50.5 37.6223 49.8415 38.7944 48.6694C39.9665 47.4973 40.625 45.9076 40.625 44.25V6.75C40.625 5.0924 39.9665 3.50269 38.7944 2.33058C37.6223 1.15848 36.0326 0.5 34.375 0.5L15.625 0.5Z" fill="#0066FF"/>
        <path fill-rule="evenodd" clip-rule="evenodd" d="M17 26.6429H23.8571V33.5H17V26.6429ZM22.1429 31.7857V28.3571H18.7143V31.7857H22.1429Z" fill="#0066FF"/>
        <path fill-rule="evenodd" clip-rule="evenodd" d="M27.8571 26.6429H26.1429V28.3571H27.8571V30.0714H26.1429V31.7857H27.8571V33.5H29.5714V31.7857H31.2857V33.5H33V31.7857H31.2857V30.0714H33V28.3571H31.2857V26.6429H29.5714V28.3571H27.8571V26.6429ZM29.5714 30.0714H27.8571V31.7857H29.5714V30.0714ZM29.5714 30.0714V28.3571H31.2857V30.0714H29.5714Z" fill="#0066FF"/>
        <path fill-rule="evenodd" clip-rule="evenodd" d="M26.1429 17.5H33V24.3571H26.1429V17.5ZM30.7143 19.7857H28.4286V22.0714H30.7143V19.7857Z" fill="#0066FF"/>
        <path d="M23.8571 17.5H17V24.3571H23.8571V17.5Z" fill="#0066FF"/>
    </g>
    <defs>
        <clipPath id="clip0_798_6354">
            <rect width="50" height="50" fill="white" transform="translate(0 0.5)"/>
        </clipPath>
    </defs>
</svg>
