<svg width="26" height="26" viewBox="0 0 26 26" fill="none" xmlns="http://www.w3.org/2000/svg">
<path d="M19.2969 11.7812C19.2969 11.9821 19.2373 12.1785 19.1257 12.3455C19.0141 12.5125 18.8555 12.6427 18.6699 12.7196C18.4843 12.7964 18.2801 12.8165 18.0831 12.7774C17.8861 12.7382 17.7051 12.6414 17.5631 12.4994C17.4211 12.3574 17.3243 12.1764 17.2851 11.9794C17.246 11.7824 17.2661 11.5782 17.3429 11.3926C17.4198 11.207 17.55 11.0484 17.717 10.9368C17.884 10.8252 18.0804 10.7656 18.2812 10.7656C18.5506 10.7656 18.8089 10.8726 18.9994 11.0631C19.1899 11.2536 19.2969 11.5119 19.2969 11.7812ZM15.4375 6.70312H11.375C11.2134 6.70312 11.0584 6.76733 10.9441 6.88161C10.8298 6.99589 10.7656 7.15088 10.7656 7.3125C10.7656 7.47412 10.8298 7.62911 10.9441 7.74339C11.0584 7.85767 11.2134 7.92188 11.375 7.92188H15.4375C15.5991 7.92188 15.7541 7.85767 15.8684 7.74339C15.9827 7.62911 16.0469 7.47412 16.0469 7.3125C16.0469 7.15088 15.9827 6.99589 15.8684 6.88161C15.7541 6.76733 15.5991 6.70312 15.4375 6.70312ZM24.9844 11.375V14.625C24.9844 15.2176 24.749 15.7859 24.3299 16.2049C23.9109 16.624 23.3426 16.8594 22.75 16.8594H22.3671L20.673 21.6034C20.5744 21.8796 20.3926 22.1186 20.1528 22.2875C19.913 22.4564 19.6268 22.547 19.3334 22.5469H18.0416C17.7482 22.547 17.462 22.4564 17.2222 22.2875C16.9824 22.1186 16.8006 21.8796 16.702 21.6034L16.4592 20.9219H10.3533L10.1105 21.6034C10.0119 21.8796 9.83014 22.1186 9.59031 22.2875C9.35049 22.4564 9.06428 22.547 8.77094 22.5469H7.47906C7.18572 22.547 6.89951 22.4564 6.65969 22.2875C6.41986 22.1186 6.23814 21.8796 6.13945 21.6034L4.85063 17.9948C3.58669 16.5774 2.82093 14.7855 2.67008 12.8923C2.30668 13.0139 1.99067 13.2466 1.76669 13.5575C1.54272 13.8684 1.42209 14.2418 1.42188 14.625C1.42188 14.7866 1.35767 14.9416 1.24339 15.0559C1.12911 15.1702 0.974116 15.2344 0.8125 15.2344C0.650884 15.2344 0.495887 15.1702 0.381607 15.0559C0.267327 14.9416 0.203125 14.7866 0.203125 14.625C0.203173 13.9194 0.448138 13.2356 0.896202 12.6905C1.34427 12.1454 1.96765 11.7727 2.65992 11.636C2.80251 9.4206 3.78237 7.34234 5.40079 5.82275C7.0192 4.30317 9.155 3.45602 11.375 3.45312H21.9375C22.0991 3.45313 22.2541 3.51733 22.3684 3.63161C22.4827 3.74589 22.5469 3.90088 22.5469 4.0625C22.5469 4.22412 22.4827 4.37911 22.3684 4.49339C22.2541 4.60767 22.0991 4.67188 21.9375 4.67188H19.0755C20.6617 5.60983 21.9104 7.02589 22.6423 8.71711C22.7033 8.85727 22.7602 8.99844 22.813 9.14164C23.3944 9.15803 23.9465 9.40052 24.352 9.81756C24.7575 10.2346 24.9843 10.7933 24.9844 11.375ZM23.7656 11.375C23.7656 11.1056 23.6586 10.8473 23.4682 10.6568C23.2777 10.4664 23.0194 10.3594 22.75 10.3594H22.3783C22.2485 10.3595 22.1221 10.3182 22.0174 10.2415C21.9127 10.1648 21.8353 10.0566 21.7963 9.93281C21.7188 9.6847 21.6279 9.44094 21.5241 9.20258C20.9417 7.8566 19.9781 6.71045 18.7522 5.90539C17.5263 5.10033 16.0916 4.67155 14.625 4.67188H11.375C9.91633 4.67173 8.48914 5.09607 7.2675 5.89313C6.04586 6.69019 5.08256 7.82553 4.4951 9.16067C3.90763 10.4958 3.7214 11.9731 3.9591 13.4122C4.1968 14.8514 4.84816 16.1903 5.83375 17.2656C5.88842 17.3242 5.93057 17.3933 5.95766 17.4688L7.28711 21.19C7.30068 21.2302 7.32649 21.2651 7.36091 21.2899C7.39534 21.3146 7.43665 21.328 7.47906 21.3281H8.77094C8.81298 21.3282 8.85402 21.3153 8.8884 21.2911C8.92278 21.2669 8.94881 21.2327 8.96289 21.193L9.34984 20.1094C9.39181 19.9907 9.46951 19.8879 9.57226 19.8151C9.67501 19.7424 9.79778 19.7033 9.92367 19.7031H16.8888C17.0147 19.7033 17.1375 19.7424 17.2402 19.8151C17.343 19.8879 17.4207 19.9907 17.4627 20.1094L17.8496 21.1951C17.8637 21.2347 17.8897 21.269 17.9241 21.2931C17.9585 21.3173 17.9995 21.3303 18.0416 21.3302H19.3334C19.3755 21.3303 19.4165 21.3173 19.4509 21.2931C19.4853 21.269 19.5113 21.2347 19.5254 21.1951L21.3637 16.0469C21.4056 15.9282 21.4833 15.8254 21.5861 15.7526C21.6888 15.6799 21.8116 15.6408 21.9375 15.6406H22.75C23.0194 15.6406 23.2777 15.5336 23.4682 15.3432C23.6586 15.1527 23.7656 14.8944 23.7656 14.625V11.375Z" fill="black"/>
</svg>
