<svg width="21" height="21" viewBox="0 0 21 21" fill="none" xmlns="http://www.w3.org/2000/svg">
<path fill-rule="evenodd" clip-rule="evenodd" d="M17.6926 3.30839C17.8879 3.50365 17.8879 3.82023 17.6926 4.0155L8.20729 13.5003L11.2428 13.5003C11.519 13.5003 11.7428 13.7242 11.7428 14.0003C11.7428 14.2765 11.519 14.5003 11.2428 14.5003L6.50018 14.5003L6.50018 9.7577C6.50018 9.48156 6.72404 9.2577 7.00018 9.2577C7.27633 9.2577 7.50018 9.48156 7.50018 9.7577L7.50018 12.7932L16.9855 3.30839C17.1808 3.11313 17.4974 3.11313 17.6926 3.30839Z" fill="black"/>
<path fill-rule="evenodd" clip-rule="evenodd" d="M15.1678 1.09199C13.7617 0.39303 12.1768 -5.32263e-07 10.5 -4.5897e-07C4.70101 -2.05488e-07 -7.12451e-07 4.70101 -4.5897e-07 10.5C-2.05488e-07 16.299 4.70101 21 10.5 21C16.299 21 21 16.299 21 10.5C21 8.82324 20.607 7.23829 19.908 5.83222L19.1574 6.58285C19.6986 7.77719 20 9.1034 20 10.5C20 15.7467 15.7467 20 10.5 20C5.25329 20 1 15.7467 1 10.5C0.999999 5.25329 5.25329 1 10.5 1C11.8966 0.999999 13.2228 1.30137 14.4171 1.84262L15.1678 1.09199Z" fill="black"/>
</svg>
