<svg width="21" height="21" viewBox="0 0 21 21" fill="black" xmlns="http://www.w3.org/2000/svg">
<path fill-rule="evenodd" clip-rule="evenodd" d="M6.5 14.5C6.30474 14.3047 6.30474 13.9881 6.5 13.7929L15.9853 4.308L12.9498 4.308C12.6737 4.308 12.4498 4.08415 12.4498 3.808C12.4498 3.53186 12.6737 3.308 12.9498 3.308L17.6924 3.308L17.6924 8.05064C17.6924 8.32679 17.4686 8.55064 17.1924 8.55064C16.9163 8.55065 16.6924 8.32679 16.6924 8.05064L16.6924 5.01511L7.20711 14.5C7.01184 14.6952 6.69526 14.6952 6.5 14.5Z"/>
<path fill-rule="evenodd" clip-rule="evenodd" d="M15.1678 1.09199C13.7617 0.39303 12.1768 -5.32263e-07 10.5 -4.5897e-07C4.70101 -2.05488e-07 -7.12451e-07 4.70101 -4.5897e-07 10.5C-2.05488e-07 16.299 4.70101 21 10.5 21C16.299 21 21 16.299 21 10.5C21 8.82324 20.607 7.23829 19.908 5.83222L19.1574 6.58285C19.6986 7.77719 20 9.1034 20 10.5C20 15.7467 15.7467 20 10.5 20C5.25329 20 1 15.7467 1 10.5C0.999999 5.25329 5.25329 1 10.5 1C11.8966 0.999999 13.2228 1.30137 14.4171 1.84262L15.1678 1.09199Z"/>
</svg>
