<svg width="12" height="17" viewBox="0 0 12 17" fill="none" xmlns="http://www.w3.org/2000/svg">
<path d="M6 10.9312C5.7875 10.9312 5.60925 10.8592 5.46525 10.7152C5.32125 10.5712 5.2495 10.3932 5.25 10.1812V2.55L4.575 3.225C4.4375 3.3625 4.2655 3.43125 4.059 3.43125C3.8525 3.43125 3.6745 3.35625 3.525 3.20625C3.3875 3.05625 3.31875 2.878 3.31875 2.6715C3.31875 2.465 3.3875 2.29325 3.525 2.15625L5.475 0.20625C5.5375 0.14375 5.61575 0.09375 5.70975 0.05625C5.80375 0.01875 5.9005 0 6 0C6.1 0 6.197 0.01875 6.291 0.05625C6.385 0.09375 6.463 0.14375 6.525 0.20625L8.475 2.15625C8.625 2.30625 8.7 2.4875 8.7 2.7C8.7 2.9125 8.625 3.0875 8.475 3.225C8.325 3.3625 8.14675 3.43125 7.94025 3.43125C7.73375 3.43125 7.562 3.3625 7.425 3.225L6.75 2.55V10.1812C6.75 10.3937 6.678 10.572 6.534 10.716C6.39 10.86 6.212 10.9317 6 10.9312ZM1.5 16.1813C1.0875 16.1813 0.734251 16.0343 0.440251 15.7403C0.146251 15.4463 -0.000498727 15.0933 1.27335e-06 14.6813V6.43125C1.27335e-06 6.01875 0.147001 5.6655 0.441001 5.3715C0.735001 5.0775 1.088 4.93075 1.5 4.93125H3C3.2125 4.93125 3.39075 5.00325 3.53475 5.14725C3.67875 5.29125 3.7505 5.46925 3.75 5.68125C3.75 5.89375 3.678 6.072 3.534 6.216C3.39 6.36 3.212 6.43175 3 6.43125H1.5V14.6813H10.5V6.43125H9C8.7875 6.43125 8.60925 6.35925 8.46525 6.21525C8.32125 6.07125 8.2495 5.89325 8.25 5.68125C8.25 5.46875 8.322 5.2905 8.466 5.1465C8.61 5.0025 8.788 4.93075 9 4.93125H10.5C10.9125 4.93125 11.2658 5.07825 11.5598 5.37225C11.8538 5.66625 12.0005 6.01925 12 6.43125V14.6813C12 15.0938 11.853 15.447 11.559 15.741C11.265 16.035 10.912 16.1818 10.5 16.1813H1.5Z" fill="white"/>
</svg>
