<svg width="13" height="18" viewBox="0 0 13 18" fill="none" xmlns="http://www.w3.org/2000/svg">
<path d="M6.5 11.8407C6.2875 11.8407 6.10925 11.7687 5.96525 11.6247C5.82125 11.4807 5.7495 11.3027 5.75 11.0907V3.45942L5.075 4.13442C4.9375 4.27192 4.7655 4.34067 4.559 4.34067C4.3525 4.34067 4.1745 4.26567 4.025 4.11567C3.8875 3.96567 3.81875 3.78742 3.81875 3.58092C3.81875 3.37442 3.8875 3.20267 4.025 3.06567L5.975 1.11567C6.0375 1.05317 6.11575 1.00317 6.20975 0.965674C6.30375 0.928174 6.4005 0.909424 6.5 0.909424C6.6 0.909424 6.697 0.928174 6.791 0.965674C6.885 1.00317 6.963 1.05317 7.025 1.11567L8.975 3.06567C9.125 3.21567 9.2 3.39692 9.2 3.60942C9.2 3.82192 9.125 3.99692 8.975 4.13442C8.825 4.27192 8.64675 4.34067 8.44025 4.34067C8.23375 4.34067 8.062 4.27192 7.925 4.13442L7.25 3.45942V11.0907C7.25 11.3032 7.178 11.4814 7.034 11.6254C6.89 11.7694 6.712 11.8412 6.5 11.8407ZM2 17.0907C1.5875 17.0907 1.23425 16.9437 0.940251 16.6497C0.646251 16.3557 0.499501 16.0027 0.500001 15.5907V7.34067C0.500001 6.92817 0.647001 6.57492 0.941001 6.28092C1.235 5.98692 1.588 5.84017 2 5.84067H3.5C3.7125 5.84067 3.89075 5.91267 4.03475 6.05667C4.17875 6.20067 4.2505 6.37867 4.25 6.59067C4.25 6.80317 4.178 6.98142 4.034 7.12542C3.89 7.26942 3.712 7.34117 3.5 7.34067H2V15.5907H11V7.34067H9.5C9.2875 7.34067 9.10925 7.26867 8.96525 7.12467C8.82125 6.98067 8.7495 6.80267 8.75 6.59067C8.75 6.37817 8.822 6.19992 8.966 6.05592C9.11 5.91192 9.288 5.84017 9.5 5.84067H11C11.4125 5.84067 11.7658 5.98767 12.0598 6.28167C12.3538 6.57567 12.5005 6.92867 12.5 7.34067V15.5907C12.5 16.0032 12.353 16.3564 12.059 16.6504C11.765 16.9444 11.412 17.0912 11 17.0907H2Z" fill="currentColor"/>
</svg>
