<svg width="35" height="34" viewBox="0 0 35 34" fill="none" xmlns="http://www.w3.org/2000/svg">
<circle cx="17.5" cy="17" r="16.5" stroke="#303030"/>
<path d="M11.9 23C11.515 23 11.1853 22.853 10.9109 22.559C10.6365 22.265 10.4995 21.912 10.5 21.5V12.5C10.5 12.0875 10.6372 11.7343 10.9116 11.4403C11.186 11.1463 11.5155 10.9995 11.9 11H23.1C23.485 11 23.8147 11.147 24.0891 11.441C24.3635 11.735 24.5005 12.088 24.5 12.5V21.5C24.5 21.9125 24.3628 22.2657 24.0884 22.5597C23.814 22.8537 23.4845 23.0005 23.1 23H11.9ZM17.5 17.75L11.9 14V21.5H23.1V14L17.5 17.75ZM17.5 16.25L23.1 12.5H11.9L17.5 16.25ZM11.9 14V12.5V21.5V14Z" fill="white"/>
</svg>
