<svg width="19" height="19" viewBox="0 0 19 19" fill="none" xmlns="http://www.w3.org/2000/svg">
<path d="M18.5306 3.46935L15.5306 0.469355C15.461 0.399622 15.3783 0.344303 15.2872 0.30656C15.1962 0.268816 15.0986 0.24939 15 0.24939C14.9014 0.24939 14.8038 0.268816 14.7128 0.30656C14.6217 0.344303 14.539 0.399622 14.4694 0.469355L5.46937 9.46935C5.39975 9.53906 5.34454 9.6218 5.3069 9.71284C5.26926 9.80389 5.24992 9.90146 5.25 9.99998V13C5.25 13.1989 5.32902 13.3897 5.46967 13.5303C5.61032 13.671 5.80109 13.75 6 13.75H9C9.09852 13.7501 9.19609 13.7307 9.28714 13.6931C9.37818 13.6554 9.46092 13.6002 9.53063 13.5306L18.5306 4.53061C18.6004 4.46095 18.6557 4.37823 18.6934 4.28718C18.7312 4.19614 18.7506 4.09854 18.7506 3.99998C18.7506 3.90142 18.7312 3.80382 18.6934 3.71277C18.6557 3.62173 18.6004 3.53901 18.5306 3.46935ZM8.68969 12.25H6.75V10.3103L12.75 4.31029L14.6897 6.24998L8.68969 12.25ZM15.75 5.18967L13.8103 3.24998L15 2.06029L16.9397 3.99998L15.75 5.18967ZM18 9.24998V17.5C18 17.8978 17.842 18.2793 17.5607 18.5606C17.2794 18.8419 16.8978 19 16.5 19H1.5C1.10218 19 0.720644 18.8419 0.43934 18.5606C0.158035 18.2793 0 17.8978 0 17.5V2.49998C0 2.10215 0.158035 1.72062 0.43934 1.43932C0.720644 1.15801 1.10218 0.99998 1.5 0.99998H9.75C9.94891 0.99998 10.1397 1.079 10.2803 1.21965C10.421 1.3603 10.5 1.55107 10.5 1.74998C10.5 1.94889 10.421 2.13966 10.2803 2.28031C10.1397 2.42096 9.94891 2.49998 9.75 2.49998H1.5V17.5H16.5V9.24998C16.5 9.05107 16.579 8.8603 16.7197 8.71965C16.8603 8.579 17.0511 8.49998 17.25 8.49998C17.4489 8.49998 17.6397 8.579 17.7803 8.71965C17.921 8.8603 18 9.05107 18 9.24998Z" fill="#D5D5D5"/>
</svg>
