<svg width="35" height="34" viewBox="0 0 35 34" fill="none" xmlns="http://www.w3.org/2000/svg">
<circle cx="17.5" cy="17" r="16.5" stroke="#D5D5D5"/>
<path d="M22.625 12.5031V9H12.375V12.5031C11.7347 12.5359 11.1313 12.8132 10.6894 13.2778C10.2475 13.7424 10.0008 14.3588 10 15V21H12.125V20H11V15C11.0004 14.6023 11.1586 14.221 11.4398 13.9398C11.721 13.6586 12.1023 13.5004 12.5 13.5H22.5C22.8977 13.5004 23.279 13.6586 23.5602 13.9398C23.8414 14.221 23.9996 14.6023 24 15V20H22.625V21H25V15C24.9992 14.3588 24.7525 13.7424 24.3106 13.2778C23.8687 12.8132 23.2653 12.5359 22.625 12.5031ZM21.625 12.5H13.375V10H21.625V12.5Z" fill="black"/>
<path d="M21.875 14.75H22.875V15.75H21.875V14.75ZM13.125 16.75H11.875V17.75H13.125V24H21.625V17.75H22.875V16.75H13.125ZM20.625 23H14.125V17.75H20.625V23Z" fill="black"/>
</svg>
