<svg width="136" height="136" viewBox="0 0 136 136" fill="none" xmlns="http://www.w3.org/2000/svg">
<path d="M4.68966 0H0V4.68966H4.68966V0Z" fill="black"/>
<path d="M9.37931 0H4.68966V4.68966H9.37931V0Z" fill="black"/>
<path d="M14.069 0H9.37931V4.68966H14.069V0Z" fill="black"/>
<path d="M18.7586 0H14.069V4.68966H18.7586V0Z" fill="black"/>
<path d="M23.4483 0H18.7586V4.68966H23.4483V0Z" fill="black"/>
<path d="M28.1379 0H23.4483V4.68966H28.1379V0Z" fill="black"/>
<path d="M32.8276 0H28.1379V4.68966H32.8276V0Z" fill="black"/>
<path d="M42.2069 0H37.5172V4.68966H42.2069V0Z" fill="black"/>
<path d="M46.8966 0H42.2069V4.68966H46.8966V0Z" fill="black"/>
<path d="M56.2759 0H51.5862V4.68966H56.2759V0Z" fill="black"/>
<path d="M60.9655 0H56.2759V4.68966H60.9655V0Z" fill="black"/>
<path d="M65.6552 0H60.9655V4.68966H65.6552V0Z" fill="black"/>
<path d="M75.0345 0H70.3448V4.68966H75.0345V0Z" fill="black"/>
<path d="M79.7241 0H75.0345V4.68966H79.7241V0Z" fill="black"/>
<path d="M84.4138 0H79.7241V4.68966H84.4138V0Z" fill="black"/>
<path d="M89.1034 0H84.4138V4.68966H89.1034V0Z" fill="black"/>
<path d="M93.7931 0H89.1034V4.68966H93.7931V0Z" fill="black"/>
<path d="M98.4828 0H93.7931V4.68966H98.4828V0Z" fill="black"/>
<path d="M107.862 0H103.172V4.68966H107.862V0Z" fill="black"/>
<path d="M112.552 0H107.862V4.68966H112.552V0Z" fill="black"/>
<path d="M117.241 0H112.552V4.68966H117.241V0Z" fill="black"/>
<path d="M121.931 0H117.241V4.68966H121.931V0Z" fill="black"/>
<path d="M126.621 0H121.931V4.68966H126.621V0Z" fill="black"/>
<path d="M131.31 0H126.621V4.68966H131.31V0Z" fill="black"/>
<path d="M136 0H131.31V4.68966H136V0Z" fill="black"/>
<path d="M4.68966 4.68966H0V9.37931H4.68966V4.68966Z" fill="black"/>
<path d="M32.8276 4.68966H28.1379V9.37931H32.8276V4.68966Z" fill="black"/>
<path d="M46.8966 4.68966H42.2069V9.37931H46.8966V4.68966Z" fill="black"/>
<path d="M51.5862 4.68966H46.8966V9.37931H51.5862V4.68966Z" fill="black"/>
<path d="M56.2759 4.68966H51.5862V9.37931H56.2759V4.68966Z" fill="black"/>
<path d="M60.9655 4.68966H56.2759V9.37931H60.9655V4.68966Z" fill="black"/>
<path d="M70.3448 4.68966H65.6552V9.37931H70.3448V4.68966Z" fill="black"/>
<path d="M75.0345 4.68966H70.3448V9.37931H75.0345V4.68966Z" fill="black"/>
<path d="M79.7241 4.68966H75.0345V9.37931H79.7241V4.68966Z" fill="black"/>
<path d="M84.4138 4.68966H79.7241V9.37931H84.4138V4.68966Z" fill="black"/>
<path d="M89.1034 4.68966H84.4138V9.37931H89.1034V4.68966Z" fill="black"/>
<path d="M93.7931 4.68966H89.1034V9.37931H93.7931V4.68966Z" fill="black"/>
<path d="M98.4828 4.68966H93.7931V9.37931H98.4828V4.68966Z" fill="black"/>
<path d="M107.862 4.68966H103.172V9.37931H107.862V4.68966Z" fill="black"/>
<path d="M136 4.68966H131.31V9.37931H136V4.68966Z" fill="black"/>
<path d="M4.68966 9.37931H0V14.069H4.68966V9.37931Z" fill="black"/>
<path d="M14.069 9.37931H9.37931V14.069H14.069V9.37931Z" fill="black"/>
<path d="M18.7586 9.37931H14.069V14.069H18.7586V9.37931Z" fill="black"/>
<path d="M23.4483 9.37931H18.7586V14.069H23.4483V9.37931Z" fill="black"/>
<path d="M32.8276 9.37931H28.1379V14.069H32.8276V9.37931Z" fill="black"/>
<path d="M46.8966 9.37931H42.2069V14.069H46.8966V9.37931Z" fill="black"/>
<path d="M51.5862 9.37931H46.8966V14.069H51.5862V9.37931Z" fill="black"/>
<path d="M56.2759 9.37931H51.5862V14.069H56.2759V9.37931Z" fill="black"/>
<path d="M65.6552 9.37931H60.9655V14.069H65.6552V9.37931Z" fill="black"/>
<path d="M70.3448 9.37931H65.6552V14.069H70.3448V9.37931Z" fill="black"/>
<path d="M84.4138 9.37931H79.7241V14.069H84.4138V9.37931Z" fill="black"/>
<path d="M89.1034 9.37931H84.4138V14.069H89.1034V9.37931Z" fill="black"/>
<path d="M107.862 9.37931H103.172V14.069H107.862V9.37931Z" fill="black"/>
<path d="M117.241 9.37931H112.552V14.069H117.241V9.37931Z" fill="black"/>
<path d="M121.931 9.37931H117.241V14.069H121.931V9.37931Z" fill="black"/>
<path d="M126.621 9.37931H121.931V14.069H126.621V9.37931Z" fill="black"/>
<path d="M136 9.37931H131.31V14.069H136V9.37931Z" fill="black"/>
<path d="M4.68966 14.069H0V18.7586H4.68966V14.069Z" fill="black"/>
<path d="M14.069 14.069H9.37931V18.7586H14.069V14.069Z" fill="black"/>
<path d="M18.7586 14.069H14.069V18.7586H18.7586V14.069Z" fill="black"/>
<path d="M23.4483 14.069H18.7586V18.7586H23.4483V14.069Z" fill="black"/>
<path d="M32.8276 14.069H28.1379V18.7586H32.8276V14.069Z" fill="black"/>
<path d="M42.2069 14.069H37.5172V18.7586H42.2069V14.069Z" fill="black"/>
<path d="M46.8966 14.069H42.2069V18.7586H46.8966V14.069Z" fill="black"/>
<path d="M56.2759 14.069H51.5862V18.7586H56.2759V14.069Z" fill="black"/>
<path d="M70.3448 14.069H65.6552V18.7586H70.3448V14.069Z" fill="black"/>
<path d="M75.0345 14.069H70.3448V18.7586H75.0345V14.069Z" fill="black"/>
<path d="M79.7241 14.069H75.0345V18.7586H79.7241V14.069Z" fill="black"/>
<path d="M89.1034 14.069H84.4138V18.7586H89.1034V14.069Z" fill="black"/>
<path d="M93.7931 14.069H89.1034V18.7586H93.7931V14.069Z" fill="black"/>
<path d="M98.4828 14.069H93.7931V18.7586H98.4828V14.069Z" fill="black"/>
<path d="M107.862 14.069H103.172V18.7586H107.862V14.069Z" fill="black"/>
<path d="M117.241 14.069H112.552V18.7586H117.241V14.069Z" fill="black"/>
<path d="M121.931 14.069H117.241V18.7586H121.931V14.069Z" fill="black"/>
<path d="M126.621 14.069H121.931V18.7586H126.621V14.069Z" fill="black"/>
<path d="M136 14.069H131.31V18.7586H136V14.069Z" fill="black"/>
<path d="M4.68966 18.7586H0V23.4483H4.68966V18.7586Z" fill="black"/>
<path d="M14.069 18.7586H9.37931V23.4483H14.069V18.7586Z" fill="black"/>
<path d="M18.7586 18.7586H14.069V23.4483H18.7586V18.7586Z" fill="black"/>
<path d="M23.4483 18.7586H18.7586V23.4483H23.4483V18.7586Z" fill="black"/>
<path d="M32.8276 18.7586H28.1379V23.4483H32.8276V18.7586Z" fill="black"/>
<path d="M42.2069 18.7586H37.5172V23.4483H42.2069V18.7586Z" fill="black"/>
<path d="M51.5862 18.7586H46.8966V23.4483H51.5862V18.7586Z" fill="black"/>
<path d="M60.9655 18.7586H56.2759V23.4483H60.9655V18.7586Z" fill="black"/>
<path d="M70.3448 18.7586H65.6552V23.4483H70.3448V18.7586Z" fill="black"/>
<path d="M79.7241 18.7586H75.0345V23.4483H79.7241V18.7586Z" fill="black"/>
<path d="M84.4138 18.7586H79.7241V23.4483H84.4138V18.7586Z" fill="black"/>
<path d="M89.1034 18.7586H84.4138V23.4483H89.1034V18.7586Z" fill="black"/>
<path d="M93.7931 18.7586H89.1034V23.4483H93.7931V18.7586Z" fill="black"/>
<path d="M98.4828 18.7586H93.7931V23.4483H98.4828V18.7586Z" fill="black"/>
<path d="M107.862 18.7586H103.172V23.4483H107.862V18.7586Z" fill="black"/>
<path d="M117.241 18.7586H112.552V23.4483H117.241V18.7586Z" fill="black"/>
<path d="M121.931 18.7586H117.241V23.4483H121.931V18.7586Z" fill="black"/>
<path d="M126.621 18.7586H121.931V23.4483H126.621V18.7586Z" fill="black"/>
<path d="M136 18.7586H131.31V23.4483H136V18.7586Z" fill="black"/>
<path d="M4.68966 23.4483H0V28.1379H4.68966V23.4483Z" fill="black"/>
<path d="M32.8276 23.4483H28.1379V28.1379H32.8276V23.4483Z" fill="black"/>
<path d="M42.2069 23.4483H37.5172V28.1379H42.2069V23.4483Z" fill="black"/>
<path d="M56.2759 23.4483H51.5862V28.1379H56.2759V23.4483Z" fill="black"/>
<path d="M60.9655 23.4483H56.2759V28.1379H60.9655V23.4483Z" fill="black"/>
<path d="M75.0345 23.4483H70.3448V28.1379H75.0345V23.4483Z" fill="black"/>
<path d="M89.1034 23.4483H84.4138V28.1379H89.1034V23.4483Z" fill="black"/>
<path d="M93.7931 23.4483H89.1034V28.1379H93.7931V23.4483Z" fill="black"/>
<path d="M107.862 23.4483H103.172V28.1379H107.862V23.4483Z" fill="black"/>
<path d="M136 23.4483H131.31V28.1379H136V23.4483Z" fill="black"/>
<path d="M4.68966 28.1379H0V32.8276H4.68966V28.1379Z" fill="black"/>
<path d="M9.37931 28.1379H4.68966V32.8276H9.37931V28.1379Z" fill="black"/>
<path d="M14.069 28.1379H9.37931V32.8276H14.069V28.1379Z" fill="black"/>
<path d="M18.7586 28.1379H14.069V32.8276H18.7586V28.1379Z" fill="black"/>
<path d="M23.4483 28.1379H18.7586V32.8276H23.4483V28.1379Z" fill="black"/>
<path d="M28.1379 28.1379H23.4483V32.8276H28.1379V28.1379Z" fill="black"/>
<path d="M32.8276 28.1379H28.1379V32.8276H32.8276V28.1379Z" fill="black"/>
<path d="M42.2069 28.1379H37.5172V32.8276H42.2069V28.1379Z" fill="black"/>
<path d="M51.5862 28.1379H46.8966V32.8276H51.5862V28.1379Z" fill="black"/>
<path d="M60.9655 28.1379H56.2759V32.8276H60.9655V28.1379Z" fill="black"/>
<path d="M70.3448 28.1379H65.6552V32.8276H70.3448V28.1379Z" fill="black"/>
<path d="M79.7241 28.1379H75.0345V32.8276H79.7241V28.1379Z" fill="black"/>
<path d="M89.1034 28.1379H84.4138V32.8276H89.1034V28.1379Z" fill="black"/>
<path d="M98.4828 28.1379H93.7931V32.8276H98.4828V28.1379Z" fill="black"/>
<path d="M107.862 28.1379H103.172V32.8276H107.862V28.1379Z" fill="black"/>
<path d="M112.552 28.1379H107.862V32.8276H112.552V28.1379Z" fill="black"/>
<path d="M117.241 28.1379H112.552V32.8276H117.241V28.1379Z" fill="black"/>
<path d="M121.931 28.1379H117.241V32.8276H121.931V28.1379Z" fill="black"/>
<path d="M126.621 28.1379H121.931V32.8276H126.621V28.1379Z" fill="black"/>
<path d="M131.31 28.1379H126.621V32.8276H131.31V28.1379Z" fill="black"/>
<path d="M136 28.1379H131.31V32.8276H136V28.1379Z" fill="black"/>
<path d="M42.2069 32.8276H37.5172V37.5172H42.2069V32.8276Z" fill="black"/>
<path d="M51.5862 32.8276H46.8966V37.5172H51.5862V32.8276Z" fill="black"/>
<path d="M56.2759 32.8276H51.5862V37.5172H56.2759V32.8276Z" fill="black"/>
<path d="M75.0345 32.8276H70.3448V37.5172H75.0345V32.8276Z" fill="black"/>
<path d="M84.4138 32.8276H79.7241V37.5172H84.4138V32.8276Z" fill="black"/>
<path d="M89.1034 32.8276H84.4138V37.5172H89.1034V32.8276Z" fill="black"/>
<path d="M98.4828 32.8276H93.7931V37.5172H98.4828V32.8276Z" fill="black"/>
<path d="M4.68966 37.5172H0V42.2069H4.68966V37.5172Z" fill="black"/>
<path d="M9.37931 37.5172H4.68966V42.2069H9.37931V37.5172Z" fill="black"/>
<path d="M14.069 37.5172H9.37931V42.2069H14.069V37.5172Z" fill="black"/>
<path d="M23.4483 37.5172H18.7586V42.2069H23.4483V37.5172Z" fill="black"/>
<path d="M32.8276 37.5172H28.1379V42.2069H32.8276V37.5172Z" fill="black"/>
<path d="M42.2069 37.5172H37.5172V42.2069H42.2069V37.5172Z" fill="black"/>
<path d="M51.5862 37.5172H46.8966V42.2069H51.5862V37.5172Z" fill="black"/>
<path d="M60.9655 37.5172H56.2759V42.2069H60.9655V37.5172Z" fill="black"/>
<path d="M65.6552 37.5172H60.9655V42.2069H65.6552V37.5172Z" fill="black"/>
<path d="M75.0345 37.5172H70.3448V42.2069H75.0345V37.5172Z" fill="black"/>
<path d="M89.1034 37.5172H84.4138V42.2069H89.1034V37.5172Z" fill="black"/>
<path d="M93.7931 37.5172H89.1034V42.2069H93.7931V37.5172Z" fill="black"/>
<path d="M103.172 37.5172H98.4828V42.2069H103.172V37.5172Z" fill="black"/>
<path d="M107.862 37.5172H103.172V42.2069H107.862V37.5172Z" fill="black"/>
<path d="M112.552 37.5172H107.862V42.2069H112.552V37.5172Z" fill="black"/>
<path d="M117.241 37.5172H112.552V42.2069H117.241V37.5172Z" fill="black"/>
<path d="M121.931 37.5172H117.241V42.2069H121.931V37.5172Z" fill="black"/>
<path d="M136 37.5172H131.31V42.2069H136V37.5172Z" fill="black"/>
<path d="M9.37931 42.2069H4.68966V46.8966H9.37931V42.2069Z" fill="black"/>
<path d="M23.4483 42.2069H18.7586V46.8966H23.4483V42.2069Z" fill="black"/>
<path d="M46.8966 42.2069H42.2069V46.8966H46.8966V42.2069Z" fill="black"/>
<path d="M70.3448 42.2069H65.6552V46.8966H70.3448V42.2069Z" fill="black"/>
<path d="M79.7241 42.2069H75.0345V46.8966H79.7241V42.2069Z" fill="black"/>
<path d="M93.7931 42.2069H89.1034V46.8966H93.7931V42.2069Z" fill="black"/>
<path d="M98.4828 42.2069H93.7931V46.8966H98.4828V42.2069Z" fill="black"/>
<path d="M103.172 42.2069H98.4828V46.8966H103.172V42.2069Z" fill="black"/>
<path d="M112.552 42.2069H107.862V46.8966H112.552V42.2069Z" fill="black"/>
<path d="M117.241 42.2069H112.552V46.8966H117.241V42.2069Z" fill="black"/>
<path d="M126.621 42.2069H121.931V46.8966H126.621V42.2069Z" fill="black"/>
<path d="M131.31 42.2069H126.621V46.8966H131.31V42.2069Z" fill="black"/>
<path d="M136 42.2069H131.31V46.8966H136V42.2069Z" fill="black"/>
<path d="M4.68966 46.8966H0V51.5862H4.68966V46.8966Z" fill="black"/>
<path d="M18.7586 46.8966H14.069V51.5862H18.7586V46.8966Z" fill="black"/>
<path d="M28.1379 46.8966H23.4483V51.5862H28.1379V46.8966Z" fill="black"/>
<path d="M32.8276 46.8966H28.1379V51.5862H32.8276V46.8966Z" fill="black"/>
<path d="M37.5172 46.8966H32.8276V51.5862H37.5172V46.8966Z" fill="black"/>
<path d="M42.2069 46.8966H37.5172V51.5862H42.2069V46.8966Z" fill="black"/>
<path d="M56.2759 46.8966H51.5862V51.5862H56.2759V46.8966Z" fill="black"/>
<path d="M65.6552 46.8966H60.9655V51.5862H65.6552V46.8966Z" fill="black"/>
<path d="M75.0345 46.8966H70.3448V51.5862H75.0345V46.8966Z" fill="black"/>
<path d="M79.7241 46.8966H75.0345V51.5862H79.7241V46.8966Z" fill="black"/>
<path d="M89.1034 46.8966H84.4138V51.5862H89.1034V46.8966Z" fill="black"/>
<path d="M103.172 46.8966H98.4828V51.5862H103.172V46.8966Z" fill="black"/>
<path d="M107.862 46.8966H103.172V51.5862H107.862V46.8966Z" fill="black"/>
<path d="M121.931 46.8966H117.241V51.5862H121.931V46.8966Z" fill="black"/>
<path d="M14.069 51.5862H9.37931V56.2759H14.069V51.5862Z" fill="black"/>
<path d="M18.7586 51.5862H14.069V56.2759H18.7586V51.5862Z" fill="black"/>
<path d="M42.2069 51.5862H37.5172V56.2759H42.2069V51.5862Z" fill="black"/>
<path d="M46.8966 51.5862H42.2069V56.2759H46.8966V51.5862Z" fill="black"/>
<path d="M51.5862 51.5862H46.8966V56.2759H51.5862V51.5862Z" fill="black"/>
<path d="M56.2759 51.5862H51.5862V56.2759H56.2759V51.5862Z" fill="black"/>
<path d="M60.9655 51.5862H56.2759V56.2759H60.9655V51.5862Z" fill="black"/>
<path d="M65.6552 51.5862H60.9655V56.2759H65.6552V51.5862Z" fill="black"/>
<path d="M75.0345 51.5862H70.3448V56.2759H75.0345V51.5862Z" fill="black"/>
<path d="M84.4138 51.5862H79.7241V56.2759H84.4138V51.5862Z" fill="black"/>
<path d="M89.1034 51.5862H84.4138V56.2759H89.1034V51.5862Z" fill="black"/>
<path d="M103.172 51.5862H98.4828V56.2759H103.172V51.5862Z" fill="black"/>
<path d="M121.931 51.5862H117.241V56.2759H121.931V51.5862Z" fill="black"/>
<path d="M131.31 51.5862H126.621V56.2759H131.31V51.5862Z" fill="black"/>
<path d="M136 51.5862H131.31V56.2759H136V51.5862Z" fill="black"/>
<path d="M4.68966 56.2759H0V60.9655H4.68966V56.2759Z" fill="black"/>
<path d="M23.4483 56.2759H18.7586V60.9655H23.4483V56.2759Z" fill="black"/>
<path d="M28.1379 56.2759H23.4483V60.9655H28.1379V56.2759Z" fill="black"/>
<path d="M32.8276 56.2759H28.1379V60.9655H32.8276V56.2759Z" fill="black"/>
<path d="M46.8966 56.2759H42.2069V60.9655H46.8966V56.2759Z" fill="black"/>
<path d="M51.5862 56.2759H46.8966V60.9655H51.5862V56.2759Z" fill="black"/>
<path d="M65.6552 56.2759H60.9655V60.9655H65.6552V56.2759Z" fill="black"/>
<path d="M79.7241 56.2759H75.0345V60.9655H79.7241V56.2759Z" fill="black"/>
<path d="M89.1034 56.2759H84.4138V60.9655H89.1034V56.2759Z" fill="black"/>
<path d="M93.7931 56.2759H89.1034V60.9655H93.7931V56.2759Z" fill="black"/>
<path d="M98.4828 56.2759H93.7931V60.9655H98.4828V56.2759Z" fill="black"/>
<path d="M103.172 56.2759H98.4828V60.9655H103.172V56.2759Z" fill="black"/>
<path d="M121.931 56.2759H117.241V60.9655H121.931V56.2759Z" fill="black"/>
<path d="M126.621 56.2759H121.931V60.9655H126.621V56.2759Z" fill="black"/>
<path d="M131.31 56.2759H126.621V60.9655H131.31V56.2759Z" fill="black"/>
<path d="M136 56.2759H131.31V60.9655H136V56.2759Z" fill="black"/>
<path d="M4.68966 60.9655H0V65.6552H4.68966V60.9655Z" fill="black"/>
<path d="M14.069 60.9655H9.37931V65.6552H14.069V60.9655Z" fill="black"/>
<path d="M23.4483 60.9655H18.7586V65.6552H23.4483V60.9655Z" fill="black"/>
<path d="M28.1379 60.9655H23.4483V65.6552H28.1379V60.9655Z" fill="black"/>
<path d="M42.2069 60.9655H37.5172V65.6552H42.2069V60.9655Z" fill="black"/>
<path d="M60.9655 60.9655H56.2759V65.6552H60.9655V60.9655Z" fill="black"/>
<path d="M75.0345 60.9655H70.3448V65.6552H75.0345V60.9655Z" fill="black"/>
<path d="M89.1034 60.9655H84.4138V65.6552H89.1034V60.9655Z" fill="black"/>
<path d="M93.7931 60.9655H89.1034V65.6552H93.7931V60.9655Z" fill="black"/>
<path d="M98.4828 60.9655H93.7931V65.6552H98.4828V60.9655Z" fill="black"/>
<path d="M103.172 60.9655H98.4828V65.6552H103.172V60.9655Z" fill="black"/>
<path d="M107.862 60.9655H103.172V65.6552H107.862V60.9655Z" fill="black"/>
<path d="M112.552 60.9655H107.862V65.6552H112.552V60.9655Z" fill="black"/>
<path d="M117.241 60.9655H112.552V65.6552H117.241V60.9655Z" fill="black"/>
<path d="M121.931 60.9655H117.241V65.6552H121.931V60.9655Z" fill="black"/>
<path d="M131.31 60.9655H126.621V65.6552H131.31V60.9655Z" fill="black"/>
<path d="M18.7586 65.6552H14.069V70.3448H18.7586V65.6552Z" fill="black"/>
<path d="M23.4483 65.6552H18.7586V70.3448H23.4483V65.6552Z" fill="black"/>
<path d="M28.1379 65.6552H23.4483V70.3448H28.1379V65.6552Z" fill="black"/>
<path d="M32.8276 65.6552H28.1379V70.3448H32.8276V65.6552Z" fill="black"/>
<path d="M37.5172 65.6552H32.8276V70.3448H37.5172V65.6552Z" fill="black"/>
<path d="M42.2069 65.6552H37.5172V70.3448H42.2069V65.6552Z" fill="black"/>
<path d="M46.8966 65.6552H42.2069V70.3448H46.8966V65.6552Z" fill="black"/>
<path d="M51.5862 65.6552H46.8966V70.3448H51.5862V65.6552Z" fill="black"/>
<path d="M56.2759 65.6552H51.5862V70.3448H56.2759V65.6552Z" fill="black"/>
<path d="M60.9655 65.6552H56.2759V70.3448H60.9655V65.6552Z" fill="black"/>
<path d="M70.3448 65.6552H65.6552V70.3448H70.3448V65.6552Z" fill="black"/>
<path d="M75.0345 65.6552H70.3448V70.3448H75.0345V65.6552Z" fill="black"/>
<path d="M89.1034 65.6552H84.4138V70.3448H89.1034V65.6552Z" fill="black"/>
<path d="M121.931 65.6552H117.241V70.3448H121.931V65.6552Z" fill="black"/>
<path d="M131.31 65.6552H126.621V70.3448H131.31V65.6552Z" fill="black"/>
<path d="M4.68966 70.3448H0V75.0345H4.68966V70.3448Z" fill="black"/>
<path d="M18.7586 70.3448H14.069V75.0345H18.7586V70.3448Z" fill="black"/>
<path d="M51.5862 70.3448H46.8966V75.0345H51.5862V70.3448Z" fill="black"/>
<path d="M70.3448 70.3448H65.6552V75.0345H70.3448V70.3448Z" fill="black"/>
<path d="M75.0345 70.3448H70.3448V75.0345H75.0345V70.3448Z" fill="black"/>
<path d="M79.7241 70.3448H75.0345V75.0345H79.7241V70.3448Z" fill="black"/>
<path d="M89.1034 70.3448H84.4138V75.0345H89.1034V70.3448Z" fill="black"/>
<path d="M103.172 70.3448H98.4828V75.0345H103.172V70.3448Z" fill="black"/>
<path d="M107.862 70.3448H103.172V75.0345H107.862V70.3448Z" fill="black"/>
<path d="M121.931 70.3448H117.241V75.0345H121.931V70.3448Z" fill="black"/>
<path d="M126.621 70.3448H121.931V75.0345H126.621V70.3448Z" fill="black"/>
<path d="M131.31 70.3448H126.621V75.0345H131.31V70.3448Z" fill="black"/>
<path d="M136 70.3448H131.31V75.0345H136V70.3448Z" fill="black"/>
<path d="M18.7586 75.0345H14.069V79.7241H18.7586V75.0345Z" fill="black"/>
<path d="M23.4483 75.0345H18.7586V79.7241H23.4483V75.0345Z" fill="black"/>
<path d="M28.1379 75.0345H23.4483V79.7241H28.1379V75.0345Z" fill="black"/>
<path d="M32.8276 75.0345H28.1379V79.7241H32.8276V75.0345Z" fill="black"/>
<path d="M56.2759 75.0345H51.5862V79.7241H56.2759V75.0345Z" fill="black"/>
<path d="M65.6552 75.0345H60.9655V79.7241H65.6552V75.0345Z" fill="black"/>
<path d="M70.3448 75.0345H65.6552V79.7241H70.3448V75.0345Z" fill="black"/>
<path d="M79.7241 75.0345H75.0345V79.7241H79.7241V75.0345Z" fill="black"/>
<path d="M89.1034 75.0345H84.4138V79.7241H89.1034V75.0345Z" fill="black"/>
<path d="M103.172 75.0345H98.4828V79.7241H103.172V75.0345Z" fill="black"/>
<path d="M112.552 75.0345H107.862V79.7241H112.552V75.0345Z" fill="black"/>
<path d="M136 75.0345H131.31V79.7241H136V75.0345Z" fill="black"/>
<path d="M4.68966 79.7241H0V84.4138H4.68966V79.7241Z" fill="black"/>
<path d="M9.37931 79.7241H4.68966V84.4138H9.37931V79.7241Z" fill="black"/>
<path d="M18.7586 79.7241H14.069V84.4138H18.7586V79.7241Z" fill="black"/>
<path d="M28.1379 79.7241H23.4483V84.4138H28.1379V79.7241Z" fill="black"/>
<path d="M42.2069 79.7241H37.5172V84.4138H42.2069V79.7241Z" fill="black"/>
<path d="M51.5862 79.7241H46.8966V84.4138H51.5862V79.7241Z" fill="black"/>
<path d="M56.2759 79.7241H51.5862V84.4138H56.2759V79.7241Z" fill="black"/>
<path d="M98.4828 79.7241H93.7931V84.4138H98.4828V79.7241Z" fill="black"/>
<path d="M103.172 79.7241H98.4828V84.4138H103.172V79.7241Z" fill="black"/>
<path d="M112.552 79.7241H107.862V84.4138H112.552V79.7241Z" fill="black"/>
<path d="M126.621 79.7241H121.931V84.4138H126.621V79.7241Z" fill="black"/>
<path d="M14.069 84.4138H9.37931V89.1034H14.069V84.4138Z" fill="black"/>
<path d="M23.4483 84.4138H18.7586V89.1034H23.4483V84.4138Z" fill="black"/>
<path d="M28.1379 84.4138H23.4483V89.1034H28.1379V84.4138Z" fill="black"/>
<path d="M32.8276 84.4138H28.1379V89.1034H32.8276V84.4138Z" fill="black"/>
<path d="M56.2759 84.4138H51.5862V89.1034H56.2759V84.4138Z" fill="black"/>
<path d="M65.6552 84.4138H60.9655V89.1034H65.6552V84.4138Z" fill="black"/>
<path d="M79.7241 84.4138H75.0345V89.1034H79.7241V84.4138Z" fill="black"/>
<path d="M84.4138 84.4138H79.7241V89.1034H84.4138V84.4138Z" fill="black"/>
<path d="M103.172 84.4138H98.4828V89.1034H103.172V84.4138Z" fill="black"/>
<path d="M112.552 84.4138H107.862V89.1034H112.552V84.4138Z" fill="black"/>
<path d="M121.931 84.4138H117.241V89.1034H121.931V84.4138Z" fill="black"/>
<path d="M9.37931 89.1034H4.68966V93.7931H9.37931V89.1034Z" fill="black"/>
<path d="M18.7586 89.1034H14.069V93.7931H18.7586V89.1034Z" fill="black"/>
<path d="M23.4483 89.1034H18.7586V93.7931H23.4483V89.1034Z" fill="black"/>
<path d="M37.5172 89.1034H32.8276V93.7931H37.5172V89.1034Z" fill="black"/>
<path d="M46.8966 89.1034H42.2069V93.7931H46.8966V89.1034Z" fill="black"/>
<path d="M56.2759 89.1034H51.5862V93.7931H56.2759V89.1034Z" fill="black"/>
<path d="M70.3448 89.1034H65.6552V93.7931H70.3448V89.1034Z" fill="black"/>
<path d="M79.7241 89.1034H75.0345V93.7931H79.7241V89.1034Z" fill="black"/>
<path d="M84.4138 89.1034H79.7241V93.7931H84.4138V89.1034Z" fill="black"/>
<path d="M89.1034 89.1034H84.4138V93.7931H89.1034V89.1034Z" fill="black"/>
<path d="M107.862 89.1034H103.172V93.7931H107.862V89.1034Z" fill="black"/>
<path d="M112.552 89.1034H107.862V93.7931H112.552V89.1034Z" fill="black"/>
<path d="M117.241 89.1034H112.552V93.7931H117.241V89.1034Z" fill="black"/>
<path d="M126.621 89.1034H121.931V93.7931H126.621V89.1034Z" fill="black"/>
<path d="M136 89.1034H131.31V93.7931H136V89.1034Z" fill="black"/>
<path d="M9.37931 93.7931H4.68966V98.4828H9.37931V93.7931Z" fill="black"/>
<path d="M14.069 93.7931H9.37931V98.4828H14.069V93.7931Z" fill="black"/>
<path d="M18.7586 93.7931H14.069V98.4828H18.7586V93.7931Z" fill="black"/>
<path d="M28.1379 93.7931H23.4483V98.4828H28.1379V93.7931Z" fill="black"/>
<path d="M32.8276 93.7931H28.1379V98.4828H32.8276V93.7931Z" fill="black"/>
<path d="M37.5172 93.7931H32.8276V98.4828H37.5172V93.7931Z" fill="black"/>
<path d="M56.2759 93.7931H51.5862V98.4828H56.2759V93.7931Z" fill="black"/>
<path d="M60.9655 93.7931H56.2759V98.4828H60.9655V93.7931Z" fill="black"/>
<path d="M65.6552 93.7931H60.9655V98.4828H65.6552V93.7931Z" fill="black"/>
<path d="M70.3448 93.7931H65.6552V98.4828H70.3448V93.7931Z" fill="black"/>
<path d="M79.7241 93.7931H75.0345V98.4828H79.7241V93.7931Z" fill="black"/>
<path d="M84.4138 93.7931H79.7241V98.4828H84.4138V93.7931Z" fill="black"/>
<path d="M98.4828 93.7931H93.7931V98.4828H98.4828V93.7931Z" fill="black"/>
<path d="M103.172 93.7931H98.4828V98.4828H103.172V93.7931Z" fill="black"/>
<path d="M107.862 93.7931H103.172V98.4828H107.862V93.7931Z" fill="black"/>
<path d="M112.552 93.7931H107.862V98.4828H112.552V93.7931Z" fill="black"/>
<path d="M117.241 93.7931H112.552V98.4828H117.241V93.7931Z" fill="black"/>
<path d="M136 93.7931H131.31V98.4828H136V93.7931Z" fill="black"/>
<path d="M42.2069 98.4828H37.5172V103.172H42.2069V98.4828Z" fill="black"/>
<path d="M56.2759 98.4828H51.5862V103.172H56.2759V98.4828Z" fill="black"/>
<path d="M65.6552 98.4828H60.9655V103.172H65.6552V98.4828Z" fill="black"/>
<path d="M70.3448 98.4828H65.6552V103.172H70.3448V98.4828Z" fill="black"/>
<path d="M98.4828 98.4828H93.7931V103.172H98.4828V98.4828Z" fill="black"/>
<path d="M117.241 98.4828H112.552V103.172H117.241V98.4828Z" fill="black"/>
<path d="M126.621 98.4828H121.931V103.172H126.621V98.4828Z" fill="black"/>
<path d="M131.31 98.4828H126.621V103.172H131.31V98.4828Z" fill="black"/>
<path d="M136 98.4828H131.31V103.172H136V98.4828Z" fill="black"/>
<path d="M4.68966 103.172H0V107.862H4.68966V103.172Z" fill="black"/>
<path d="M9.37931 103.172H4.68966V107.862H9.37931V103.172Z" fill="black"/>
<path d="M14.069 103.172H9.37931V107.862H14.069V103.172Z" fill="black"/>
<path d="M18.7586 103.172H14.069V107.862H18.7586V103.172Z" fill="black"/>
<path d="M23.4483 103.172H18.7586V107.862H23.4483V103.172Z" fill="black"/>
<path d="M28.1379 103.172H23.4483V107.862H28.1379V103.172Z" fill="black"/>
<path d="M32.8276 103.172H28.1379V107.862H32.8276V103.172Z" fill="black"/>
<path d="M51.5862 103.172H46.8966V107.862H51.5862V103.172Z" fill="black"/>
<path d="M60.9655 103.172H56.2759V107.862H60.9655V103.172Z" fill="black"/>
<path d="M65.6552 103.172H60.9655V107.862H65.6552V103.172Z" fill="black"/>
<path d="M70.3448 103.172H65.6552V107.862H70.3448V103.172Z" fill="black"/>
<path d="M89.1034 103.172H84.4138V107.862H89.1034V103.172Z" fill="black"/>
<path d="M98.4828 103.172H93.7931V107.862H98.4828V103.172Z" fill="black"/>
<path d="M107.862 103.172H103.172V107.862H107.862V103.172Z" fill="black"/>
<path d="M117.241 103.172H112.552V107.862H117.241V103.172Z" fill="black"/>
<path d="M136 103.172H131.31V107.862H136V103.172Z" fill="black"/>
<path d="M4.68966 107.862H0V112.552H4.68966V107.862Z" fill="black"/>
<path d="M32.8276 107.862H28.1379V112.552H32.8276V107.862Z" fill="black"/>
<path d="M46.8966 107.862H42.2069V112.552H46.8966V107.862Z" fill="black"/>
<path d="M56.2759 107.862H51.5862V112.552H56.2759V107.862Z" fill="black"/>
<path d="M60.9655 107.862H56.2759V112.552H60.9655V107.862Z" fill="black"/>
<path d="M65.6552 107.862H60.9655V112.552H65.6552V107.862Z" fill="black"/>
<path d="M70.3448 107.862H65.6552V112.552H70.3448V107.862Z" fill="black"/>
<path d="M98.4828 107.862H93.7931V112.552H98.4828V107.862Z" fill="black"/>
<path d="M117.241 107.862H112.552V112.552H117.241V107.862Z" fill="black"/>
<path d="M126.621 107.862H121.931V112.552H126.621V107.862Z" fill="black"/>
<path d="M4.68966 112.552H0V117.241H4.68966V112.552Z" fill="black"/>
<path d="M14.069 112.552H9.37931V117.241H14.069V112.552Z" fill="black"/>
<path d="M18.7586 112.552H14.069V117.241H18.7586V112.552Z" fill="black"/>
<path d="M23.4483 112.552H18.7586V117.241H23.4483V112.552Z" fill="black"/>
<path d="M32.8276 112.552H28.1379V117.241H32.8276V112.552Z" fill="black"/>
<path d="M42.2069 112.552H37.5172V117.241H42.2069V112.552Z" fill="black"/>
<path d="M46.8966 112.552H42.2069V117.241H46.8966V112.552Z" fill="black"/>
<path d="M56.2759 112.552H51.5862V117.241H56.2759V112.552Z" fill="black"/>
<path d="M65.6552 112.552H60.9655V117.241H65.6552V112.552Z" fill="black"/>
<path d="M75.0345 112.552H70.3448V117.241H75.0345V112.552Z" fill="black"/>
<path d="M84.4138 112.552H79.7241V117.241H84.4138V112.552Z" fill="black"/>
<path d="M89.1034 112.552H84.4138V117.241H89.1034V112.552Z" fill="black"/>
<path d="M98.4828 112.552H93.7931V117.241H98.4828V112.552Z" fill="black"/>
<path d="M103.172 112.552H98.4828V117.241H103.172V112.552Z" fill="black"/>
<path d="M107.862 112.552H103.172V117.241H107.862V112.552Z" fill="black"/>
<path d="M112.552 112.552H107.862V117.241H112.552V112.552Z" fill="black"/>
<path d="M117.241 112.552H112.552V117.241H117.241V112.552Z" fill="black"/>
<path d="M126.621 112.552H121.931V117.241H126.621V112.552Z" fill="black"/>
<path d="M131.31 112.552H126.621V117.241H131.31V112.552Z" fill="black"/>
<path d="M136 112.552H131.31V117.241H136V112.552Z" fill="black"/>
<path d="M4.68966 117.241H0V121.931H4.68966V117.241Z" fill="black"/>
<path d="M14.069 117.241H9.37931V121.931H14.069V117.241Z" fill="black"/>
<path d="M18.7586 117.241H14.069V121.931H18.7586V117.241Z" fill="black"/>
<path d="M23.4483 117.241H18.7586V121.931H23.4483V117.241Z" fill="black"/>
<path d="M32.8276 117.241H28.1379V121.931H32.8276V117.241Z" fill="black"/>
<path d="M56.2759 117.241H51.5862V121.931H56.2759V117.241Z" fill="black"/>
<path d="M65.6552 117.241H60.9655V121.931H65.6552V117.241Z" fill="black"/>
<path d="M79.7241 117.241H75.0345V121.931H79.7241V117.241Z" fill="black"/>
<path d="M89.1034 117.241H84.4138V121.931H89.1034V117.241Z" fill="black"/>
<path d="M93.7931 117.241H89.1034V121.931H93.7931V117.241Z" fill="black"/>
<path d="M98.4828 117.241H93.7931V121.931H98.4828V117.241Z" fill="black"/>
<path d="M103.172 117.241H98.4828V121.931H103.172V117.241Z" fill="black"/>
<path d="M107.862 117.241H103.172V121.931H107.862V117.241Z" fill="black"/>
<path d="M117.241 117.241H112.552V121.931H117.241V117.241Z" fill="black"/>
<path d="M131.31 117.241H126.621V121.931H131.31V117.241Z" fill="black"/>
<path d="M4.68966 121.931H0V126.621H4.68966V121.931Z" fill="black"/>
<path d="M14.069 121.931H9.37931V126.621H14.069V121.931Z" fill="black"/>
<path d="M18.7586 121.931H14.069V126.621H18.7586V121.931Z" fill="black"/>
<path d="M23.4483 121.931H18.7586V126.621H23.4483V121.931Z" fill="black"/>
<path d="M32.8276 121.931H28.1379V126.621H32.8276V121.931Z" fill="black"/>
<path d="M42.2069 121.931H37.5172V126.621H42.2069V121.931Z" fill="black"/>
<path d="M46.8966 121.931H42.2069V126.621H46.8966V121.931Z" fill="black"/>
<path d="M51.5862 121.931H46.8966V126.621H51.5862V121.931Z" fill="black"/>
<path d="M65.6552 121.931H60.9655V126.621H65.6552V121.931Z" fill="black"/>
<path d="M70.3448 121.931H65.6552V126.621H70.3448V121.931Z" fill="black"/>
<path d="M75.0345 121.931H70.3448V126.621H75.0345V121.931Z" fill="black"/>
<path d="M84.4138 121.931H79.7241V126.621H84.4138V121.931Z" fill="black"/>
<path d="M93.7931 121.931H89.1034V126.621H93.7931V121.931Z" fill="black"/>
<path d="M98.4828 121.931H93.7931V126.621H98.4828V121.931Z" fill="black"/>
<path d="M126.621 121.931H121.931V126.621H126.621V121.931Z" fill="black"/>
<path d="M131.31 121.931H126.621V126.621H131.31V121.931Z" fill="black"/>
<path d="M4.68966 126.621H0V131.31H4.68966V126.621Z" fill="black"/>
<path d="M32.8276 126.621H28.1379V131.31H32.8276V126.621Z" fill="black"/>
<path d="M42.2069 126.621H37.5172V131.31H42.2069V126.621Z" fill="black"/>
<path d="M46.8966 126.621H42.2069V131.31H46.8966V126.621Z" fill="black"/>
<path d="M65.6552 126.621H60.9655V131.31H65.6552V126.621Z" fill="black"/>
<path d="M84.4138 126.621H79.7241V131.31H84.4138V126.621Z" fill="black"/>
<path d="M98.4828 126.621H93.7931V131.31H98.4828V126.621Z" fill="black"/>
<path d="M112.552 126.621H107.862V131.31H112.552V126.621Z" fill="black"/>
<path d="M126.621 126.621H121.931V131.31H126.621V126.621Z" fill="black"/>
<path d="M4.68966 131.31H0V136H4.68966V131.31Z" fill="black"/>
<path d="M9.37931 131.31H4.68966V136H9.37931V131.31Z" fill="black"/>
<path d="M14.069 131.31H9.37931V136H14.069V131.31Z" fill="black"/>
<path d="M18.7586 131.31H14.069V136H18.7586V131.31Z" fill="black"/>
<path d="M23.4483 131.31H18.7586V136H23.4483V131.31Z" fill="black"/>
<path d="M28.1379 131.31H23.4483V136H28.1379V131.31Z" fill="black"/>
<path d="M32.8276 131.31H28.1379V136H32.8276V131.31Z" fill="black"/>
<path d="M42.2069 131.31H37.5172V136H42.2069V131.31Z" fill="black"/>
<path d="M56.2759 131.31H51.5862V136H56.2759V131.31Z" fill="black"/>
<path d="M60.9655 131.31H56.2759V136H60.9655V131.31Z" fill="black"/>
<path d="M65.6552 131.31H60.9655V136H65.6552V131.31Z" fill="black"/>
<path d="M70.3448 131.31H65.6552V136H70.3448V131.31Z" fill="black"/>
<path d="M75.0345 131.31H70.3448V136H75.0345V131.31Z" fill="black"/>
<path d="M89.1034 131.31H84.4138V136H89.1034V131.31Z" fill="black"/>
<path d="M112.552 131.31H107.862V136H112.552V131.31Z" fill="black"/>
<path d="M117.241 131.31H112.552V136H117.241V131.31Z" fill="black"/>
<path d="M121.931 131.31H117.241V136H121.931V131.31Z" fill="black"/>
<path d="M126.621 131.31H121.931V136H126.621V131.31Z" fill="black"/>
<path d="M131.31 131.31H126.621V136H131.31V131.31Z" fill="black"/>
<path d="M69 96C53.536 96 41 83.464 41 68C41 52.536 53.536 40 69 40C84.464 40 97 52.536 97 68C97 83.464 84.464 96 69 96Z" fill="black" stroke="white" stroke-width="4"/>
</svg>
