<svg width="35" height="34" viewBox="0 0 35 34" fill="none" xmlns="http://www.w3.org/2000/svg">
<circle cx="17.5" cy="17" r="16.5" stroke="#303030"/>
<path d="M17.5 18.9312C17.2875 18.9312 17.1093 18.8593 16.9653 18.7153C16.8213 18.5712 16.7495 18.3932 16.75 18.1812V10.55L16.075 11.225C15.9375 11.3625 15.7655 11.4312 15.559 11.4312C15.3525 11.4312 15.1745 11.3562 15.025 11.2062C14.8875 11.0562 14.8188 10.878 14.8188 10.6715C14.8188 10.465 14.8875 10.2933 15.025 10.1563L16.975 8.20625C17.0375 8.14375 17.1158 8.09375 17.2098 8.05625C17.3038 8.01875 17.4005 8 17.5 8C17.6 8 17.697 8.01875 17.791 8.05625C17.885 8.09375 17.963 8.14375 18.025 8.20625L19.975 10.1563C20.125 10.3063 20.2 10.4875 20.2 10.7C20.2 10.9125 20.125 11.0875 19.975 11.225C19.825 11.3625 19.6468 11.4312 19.4403 11.4312C19.2338 11.4312 19.062 11.3625 18.925 11.225L18.25 10.55V18.1812C18.25 18.3938 18.178 18.572 18.034 18.716C17.89 18.86 17.712 18.9318 17.5 18.9312ZM13 24.1813C12.5875 24.1813 12.2343 24.0343 11.9403 23.7403C11.6463 23.4463 11.4995 23.0933 11.5 22.6813V14.4312C11.5 14.0187 11.647 13.6655 11.941 13.3715C12.235 13.0775 12.588 12.9307 13 12.9312H14.5C14.7125 12.9312 14.8908 13.0033 15.0348 13.1473C15.1788 13.2912 15.2505 13.4692 15.25 13.6812C15.25 13.8937 15.178 14.072 15.034 14.216C14.89 14.36 14.712 14.4317 14.5 14.4312H13V22.6813H22V14.4312H20.5C20.2875 14.4312 20.1093 14.3592 19.9653 14.2153C19.8213 14.0712 19.7495 13.8932 19.75 13.6812C19.75 13.4688 19.822 13.2905 19.966 13.1465C20.11 13.0025 20.288 12.9307 20.5 12.9312H22C22.4125 12.9312 22.7658 13.0782 23.0598 13.3723C23.3538 13.6663 23.5005 14.0192 23.5 14.4312V22.6813C23.5 23.0938 23.353 23.447 23.059 23.741C22.765 24.035 22.412 24.1818 22 24.1813H13Z" fill="white"/>
</svg>
